ISO-10303-21;
HEADER;
FILE_DESCRIPTION(('FreeCAD Model'),'2;1');
FILE_NAME('Open CASCADE Shape Model','2026-09-12T00:01:50',('Author'),(
    ''),'Open CASCADE STEP processor 7.9','FreeCAD','Unknown');
FILE_SCHEMA(('AUTOMOTIVE_DESIGN { 1 0 10303 214 1 1 1 1 }'));
ENDSEC;
DATA;
#1 = APPLICATION_PROTOCOL_DEFINITION('international standard',
  'automotive_design',2000,#2);
#2 = APPLICATION_CONTEXT(
  'core data for automotive mechanical design processes');
#3 = SHAPE_DEFINITION_REPRESENTATION(#4,#10);
#4 = PRODUCT_DEFINITION_SHAPE('','',#5);
#5 = PRODUCT_DEFINITION('design','',#6,#9);
#6 = PRODUCT_DEFINITION_FORMATION('','',#7);
#7 = PRODUCT('DIP-8 v3','DIP-8 v3','',(#8));
#8 = PRODUCT_CONTEXT('',#2,'mechanical');
#9 = PRODUCT_DEFINITION_CONTEXT('part definition',#2,'design');
#10 = SHAPE_REPRESENTATION('',(#11,#15),#19);
#11 = AXIS2_PLACEMENT_3D('',#12,#13,#14);
#12 = CARTESIAN_POINT('',(0.,0.,0.));
#13 = DIRECTION('',(0.,0.,1.));
#14 = DIRECTION('',(1.,0.,-0.));
#15 = AXIS2_PLACEMENT_3D('',#16,#17,#18);
#16 = CARTESIAN_POINT('',(0.,0.,0.));
#17 = DIRECTION('',(0.,0.,1.));
#18 = DIRECTION('',(1.,0.,0.));
#19 = ( GEOMETRIC_REPRESENTATION_CONTEXT(3) 
GLOBAL_UNCERTAINTY_ASSIGNED_CONTEXT((#23)) GLOBAL_UNIT_ASSIGNED_CONTEXT(
(#20,#21,#22)) REPRESENTATION_CONTEXT('Context #1',
  '3D Context with UNIT and UNCERTAINTY') );
#20 = ( LENGTH_UNIT() NAMED_UNIT(*) SI_UNIT(.MILLI.,.METRE.) );
#21 = ( NAMED_UNIT(*) PLANE_ANGLE_UNIT() SI_UNIT($,.RADIAN.) );
#22 = ( NAMED_UNIT(*) SI_UNIT($,.STERADIAN.) SOLID_ANGLE_UNIT() );
#23 = UNCERTAINTY_MEASURE_WITH_UNIT(LENGTH_MEASURE(1.E-07),#20,
  'distance_accuracy_value','confusion accuracy');
#24 = PRODUCT_RELATED_PRODUCT_CATEGORY('part',$,(#7));
#25 = SHAPE_DEFINITION_REPRESENTATION(#26,#32);
#26 = PRODUCT_DEFINITION_SHAPE('','',#27);
#27 = PRODUCT_DEFINITION('design','',#28,#31);
#28 = PRODUCT_DEFINITION_FORMATION('','',#29);
#29 = PRODUCT('SIP-008','SIP-008','',(#30));
#30 = PRODUCT_CONTEXT('',#2,'mechanical');
#31 = PRODUCT_DEFINITION_CONTEXT('part definition',#2,'design');
#32 = SHAPE_REPRESENTATION('',(#11,#33,#37,#41,#45,#49,#53,#57,#61),#65
  );
#33 = AXIS2_PLACEMENT_3D('',#34,#35,#36);
#34 = CARTESIAN_POINT('',(8.9,-1.4,-0.133943197291));
#35 = DIRECTION('',(0.,0.,1.));
#36 = DIRECTION('',(1.,0.,0.));
#37 = AXIS2_PLACEMENT_3D('',#38,#39,#40);
#38 = CARTESIAN_POINT('',(8.9,-1.4,-0.133943197291));
#39 = DIRECTION('',(0.,0.,1.));
#40 = DIRECTION('',(1.,0.,0.));
#41 = AXIS2_PLACEMENT_3D('',#42,#43,#44);
#42 = CARTESIAN_POINT('',(8.9,-1.4,-0.133943197291));
#43 = DIRECTION('',(0.,0.,1.));
#44 = DIRECTION('',(1.,0.,0.));
#45 = AXIS2_PLACEMENT_3D('',#46,#47,#48);
#46 = CARTESIAN_POINT('',(8.9,-1.4,-0.133943197291));
#47 = DIRECTION('',(0.,0.,1.));
#48 = DIRECTION('',(1.,0.,0.));
#49 = AXIS2_PLACEMENT_3D('',#50,#51,#52);
#50 = CARTESIAN_POINT('',(8.9,-1.4,-0.133943197291));
#51 = DIRECTION('',(0.,0.,1.));
#52 = DIRECTION('',(1.,0.,0.));
#53 = AXIS2_PLACEMENT_3D('',#54,#55,#56);
#54 = CARTESIAN_POINT('',(8.9,-1.4,-0.133943197291));
#55 = DIRECTION('',(0.,0.,1.));
#56 = DIRECTION('',(1.,0.,0.));
#57 = AXIS2_PLACEMENT_3D('',#58,#59,#60);
#58 = CARTESIAN_POINT('',(8.9,-1.4,-0.133943197291));
#59 = DIRECTION('',(0.,0.,1.));
#60 = DIRECTION('',(1.,0.,0.));
#61 = AXIS2_PLACEMENT_3D('',#62,#63,#64);
#62 = CARTESIAN_POINT('',(8.9,-1.4,-0.133943197291));
#63 = DIRECTION('',(0.,0.,1.));
#64 = DIRECTION('',(1.,0.,0.));
#65 = ( GEOMETRIC_REPRESENTATION_CONTEXT(3) 
GLOBAL_UNCERTAINTY_ASSIGNED_CONTEXT((#69)) GLOBAL_UNIT_ASSIGNED_CONTEXT(
(#66,#67,#68)) REPRESENTATION_CONTEXT('Context #1',
  '3D Context with UNIT and UNCERTAINTY') );
#66 = ( LENGTH_UNIT() NAMED_UNIT(*) SI_UNIT(.MILLI.,.METRE.) );
#67 = ( NAMED_UNIT(*) PLANE_ANGLE_UNIT() SI_UNIT($,.RADIAN.) );
#68 = ( NAMED_UNIT(*) SI_UNIT($,.STERADIAN.) SOLID_ANGLE_UNIT() );
#69 = UNCERTAINTY_MEASURE_WITH_UNIT(LENGTH_MEASURE(1.E-07),#66,
  'distance_accuracy_value','confusion accuracy');
#70 = CONTEXT_DEPENDENT_SHAPE_REPRESENTATION(#71,#73);
#71 = ( REPRESENTATION_RELATIONSHIP('','',#32,#10) 
REPRESENTATION_RELATIONSHIP_WITH_TRANSFORMATION(#72) 
SHAPE_REPRESENTATION_RELATIONSHIP() );
#72 = ITEM_DEFINED_TRANSFORMATION('','',#11,#15);
#73 = PRODUCT_DEFINITION_SHAPE('Placement','Placement of an item',#74);
#74 = NEXT_ASSEMBLY_USAGE_OCCURRENCE('9','SIP-008','',#5,#27,$);
#75 = PRODUCT_RELATED_PRODUCT_CATEGORY('part',$,(#29));
#76 = SHAPE_DEFINITION_REPRESENTATION(#77,#83);
#77 = PRODUCT_DEFINITION_SHAPE('','',#78);
#78 = PRODUCT_DEFINITION('design','',#79,#82);
#79 = PRODUCT_DEFINITION_FORMATION('','',#80);
#80 = PRODUCT('SIP-8','SIP-8','',(#81));
#81 = PRODUCT_CONTEXT('',#2,'mechanical');
#82 = PRODUCT_DEFINITION_CONTEXT('part definition',#2,'design');
#83 = ADVANCED_BREP_SHAPE_REPRESENTATION('',(#11,#84),#411);
#84 = MANIFOLD_SOLID_BREP('',#85);
#85 = CLOSED_SHELL('',(#86,#119,#128,#168,#199,#230,#282,#306,#337,#370,
    #387,#399));
#86 = ADVANCED_FACE('',(#87),#114,.F.);
#87 = FACE_BOUND('',#88,.F.);
#88 = EDGE_LOOP('',(#89,#99,#106,#107));
#89 = ORIENTED_EDGE('',*,*,#90,.T.);
#90 = EDGE_CURVE('',#91,#93,#95,.T.);
#91 = VERTEX_POINT('',#92);
#92 = CARTESIAN_POINT('',(-8.500000119209,-4.6,1.75));
#93 = VERTEX_POINT('',#94);
#94 = CARTESIAN_POINT('',(-8.500000119209,-4.5,1.75));
#95 = LINE('',#96,#97);
#96 = CARTESIAN_POINT('',(-8.500000119209,-4.6,1.75));
#97 = VECTOR('',#98,1.);
#98 = DIRECTION('',(0.,1.,0.));
#99 = ORIENTED_EDGE('',*,*,#100,.F.);
#100 = EDGE_CURVE('',#93,#93,#101,.T.);
#101 = CIRCLE('',#102,0.5);
#102 = AXIS2_PLACEMENT_3D('',#103,#104,#105);
#103 = CARTESIAN_POINT('',(-8.000000119209,-4.5,1.75));
#104 = DIRECTION('',(-0.,1.,0.));
#105 = DIRECTION('',(1.,0.,0.));
#106 = ORIENTED_EDGE('',*,*,#90,.F.);
#107 = ORIENTED_EDGE('',*,*,#108,.T.);
#108 = EDGE_CURVE('',#91,#91,#109,.T.);
#109 = CIRCLE('',#110,0.5);
#110 = AXIS2_PLACEMENT_3D('',#111,#112,#113);
#111 = CARTESIAN_POINT('',(-8.000000119209,-4.6,1.75));
#112 = DIRECTION('',(-0.,1.,0.));
#113 = DIRECTION('',(1.,0.,0.));
#114 = CYLINDRICAL_SURFACE('',#115,0.5);
#115 = AXIS2_PLACEMENT_3D('',#116,#117,#118);
#116 = CARTESIAN_POINT('',(-8.000000119209,-4.6,1.75));
#117 = DIRECTION('',(0.,1.,0.));
#118 = DIRECTION('',(1.,0.,0.));
#119 = ADVANCED_FACE('',(#120),#123,.T.);
#120 = FACE_BOUND('',#121,.T.);
#121 = EDGE_LOOP('',(#122));
#122 = ORIENTED_EDGE('',*,*,#100,.F.);
#123 = PLANE('',#124);
#124 = AXIS2_PLACEMENT_3D('',#125,#126,#127);
#125 = CARTESIAN_POINT('',(-8.000000119209,-4.5,1.75));
#126 = DIRECTION('',(0.,-1.,0.));
#127 = DIRECTION('',(1.,0.,0.));
#128 = ADVANCED_FACE('',(#129),#163,.F.);
#129 = FACE_BOUND('',#130,.T.);
#130 = EDGE_LOOP('',(#131,#141,#149,#157));
#131 = ORIENTED_EDGE('',*,*,#132,.F.);
#132 = EDGE_CURVE('',#133,#135,#137,.T.);
#133 = VERTEX_POINT('',#134);
#134 = CARTESIAN_POINT('',(10.138,4.6,0.));
#135 = VERTEX_POINT('',#136);
#136 = CARTESIAN_POINT('',(9.904846170923,4.6,0.5));
#137 = LINE('',#138,#139);
#138 = CARTESIAN_POINT('',(10.089472045816,4.6,0.104068533586));
#139 = VECTOR('',#140,1.);
#140 = DIRECTION('',(-0.422618261741,0.,0.906307787037));
#141 = ORIENTED_EDGE('',*,*,#142,.F.);
#142 = EDGE_CURVE('',#143,#133,#145,.T.);
#143 = VERTEX_POINT('',#144);
#144 = CARTESIAN_POINT('',(10.138,-4.6,0.));
#145 = LINE('',#146,#147);
#146 = CARTESIAN_POINT('',(10.138,-2.3,0.));
#147 = VECTOR('',#148,1.);
#148 = DIRECTION('',(0.,1.,0.));
#149 = ORIENTED_EDGE('',*,*,#150,.F.);
#150 = EDGE_CURVE('',#151,#143,#153,.T.);
#151 = VERTEX_POINT('',#152);
#152 = CARTESIAN_POINT('',(9.904846170923,-4.6,0.5));
#153 = LINE('',#154,#155);
#154 = CARTESIAN_POINT('',(8.142664518608,-4.6,4.279010748584));
#155 = VECTOR('',#156,1.);
#156 = DIRECTION('',(0.422618261741,0.,-0.906307787037));
#157 = ORIENTED_EDGE('',*,*,#158,.T.);
#158 = EDGE_CURVE('',#151,#135,#159,.T.);
#159 = LINE('',#160,#161);
#160 = CARTESIAN_POINT('',(9.904846170923,-4.6,0.5));
#161 = VECTOR('',#162,1.);
#162 = DIRECTION('',(0.,1.,0.));
#163 = PLANE('',#164);
#164 = AXIS2_PLACEMENT_3D('',#165,#166,#167);
#165 = CARTESIAN_POINT('',(9.904846170923,-4.6,0.5));
#166 = DIRECTION('',(0.906307787037,0.,0.422618261741));
#167 = DIRECTION('',(0.422618261741,0.,-0.906307787037));
#168 = ADVANCED_FACE('',(#169),#194,.F.);
#169 = FACE_BOUND('',#170,.T.);
#170 = EDGE_LOOP('',(#171,#179,#180,#188));
#171 = ORIENTED_EDGE('',*,*,#172,.F.);
#172 = EDGE_CURVE('',#135,#173,#175,.T.);
#173 = VERTEX_POINT('',#174);
#174 = CARTESIAN_POINT('',(-9.904846170923,4.6,0.5));
#175 = LINE('',#176,#177);
#176 = CARTESIAN_POINT('',(0.497576914539,4.6,0.5));
#177 = VECTOR('',#178,1.);
#178 = DIRECTION('',(-1.,0.,0.));
#179 = ORIENTED_EDGE('',*,*,#158,.F.);
#180 = ORIENTED_EDGE('',*,*,#181,.F.);
#181 = EDGE_CURVE('',#182,#151,#184,.T.);
#182 = VERTEX_POINT('',#183);
#183 = CARTESIAN_POINT('',(-9.904846170923,-4.6,0.5));
#184 = LINE('',#185,#186);
#185 = CARTESIAN_POINT('',(-10.40242308546,-4.6,0.5));
#186 = VECTOR('',#187,1.);
#187 = DIRECTION('',(1.,0.,0.));
#188 = ORIENTED_EDGE('',*,*,#189,.T.);
#189 = EDGE_CURVE('',#182,#173,#190,.T.);
#190 = LINE('',#191,#192);
#191 = CARTESIAN_POINT('',(-9.904846170923,-4.6,0.5));
#192 = VECTOR('',#193,1.);
#193 = DIRECTION('',(0.,1.,0.));
#194 = PLANE('',#195);
#195 = AXIS2_PLACEMENT_3D('',#196,#197,#198);
#196 = CARTESIAN_POINT('',(-9.904846170923,-4.6,0.5));
#197 = DIRECTION('',(0.,0.,1.));
#198 = DIRECTION('',(1.,0.,-0.));
#199 = ADVANCED_FACE('',(#200),#225,.F.);
#200 = FACE_BOUND('',#201,.T.);
#201 = EDGE_LOOP('',(#202,#210,#211,#219));
#202 = ORIENTED_EDGE('',*,*,#203,.F.);
#203 = EDGE_CURVE('',#173,#204,#206,.T.);
#204 = VERTEX_POINT('',#205);
#205 = CARTESIAN_POINT('',(-10.138,4.6,0.));
#206 = LINE('',#207,#208);
#207 = CARTESIAN_POINT('',(-8.259241433146,4.6,4.029010748584));
#208 = VECTOR('',#209,1.);
#209 = DIRECTION('',(-0.422618261741,0.,-0.906307787037));
#210 = ORIENTED_EDGE('',*,*,#189,.F.);
#211 = ORIENTED_EDGE('',*,*,#212,.F.);
#212 = EDGE_CURVE('',#213,#182,#215,.T.);
#213 = VERTEX_POINT('',#214);
#214 = CARTESIAN_POINT('',(-10.138,-4.6,0.));
#215 = LINE('',#216,#217);
#216 = CARTESIAN_POINT('',(-10.20604896035,-4.6,-0.145931466414));
#217 = VECTOR('',#218,1.);
#218 = DIRECTION('',(0.422618261741,0.,0.906307787037));
#219 = ORIENTED_EDGE('',*,*,#220,.F.);
#220 = EDGE_CURVE('',#204,#213,#221,.T.);
#221 = LINE('',#222,#223);
#222 = CARTESIAN_POINT('',(-10.138,-2.3,-2.775557561563E-16));
#223 = VECTOR('',#224,1.);
#224 = DIRECTION('',(0.,-1.,0.));
#225 = PLANE('',#226);
#226 = AXIS2_PLACEMENT_3D('',#227,#228,#229);
#227 = CARTESIAN_POINT('',(-10.138,-4.6,0.));
#228 = DIRECTION('',(-0.906307787037,0.,0.422618261741));
#229 = DIRECTION('',(0.422618261741,0.,0.906307787037));
#230 = ADVANCED_FACE('',(#231,#274),#277,.T.);
#231 = FACE_BOUND('',#232,.T.);
#232 = EDGE_LOOP('',(#233,#234,#235,#236,#244,#252,#260,#268));
#233 = ORIENTED_EDGE('',*,*,#212,.T.);
#234 = ORIENTED_EDGE('',*,*,#181,.T.);
#235 = ORIENTED_EDGE('',*,*,#150,.T.);
#236 = ORIENTED_EDGE('',*,*,#237,.T.);
#237 = EDGE_CURVE('',#143,#238,#240,.T.);
#238 = VERTEX_POINT('',#239);
#239 = CARTESIAN_POINT('',(10.9,-4.6,0.));
#240 = LINE('',#241,#242);
#241 = CARTESIAN_POINT('',(-10.9,-4.6,0.));
#242 = VECTOR('',#243,1.);
#243 = DIRECTION('',(1.,0.,0.));
#244 = ORIENTED_EDGE('',*,*,#245,.T.);
#245 = EDGE_CURVE('',#238,#246,#248,.T.);
#246 = VERTEX_POINT('',#247);
#247 = CARTESIAN_POINT('',(10.9,-4.6,11.1));
#248 = LINE('',#249,#250);
#249 = CARTESIAN_POINT('',(10.9,-4.6,0.));
#250 = VECTOR('',#251,1.);
#251 = DIRECTION('',(0.,0.,1.));
#252 = ORIENTED_EDGE('',*,*,#253,.F.);
#253 = EDGE_CURVE('',#254,#246,#256,.T.);
#254 = VERTEX_POINT('',#255);
#255 = CARTESIAN_POINT('',(-10.9,-4.6,11.1));
#256 = LINE('',#257,#258);
#257 = CARTESIAN_POINT('',(-10.9,-4.6,11.1));
#258 = VECTOR('',#259,1.);
#259 = DIRECTION('',(1.,0.,0.));
#260 = ORIENTED_EDGE('',*,*,#261,.F.);
#261 = EDGE_CURVE('',#262,#254,#264,.T.);
#262 = VERTEX_POINT('',#263);
#263 = CARTESIAN_POINT('',(-10.9,-4.6,0.));
#264 = LINE('',#265,#266);
#265 = CARTESIAN_POINT('',(-10.9,-4.6,0.));
#266 = VECTOR('',#267,1.);
#267 = DIRECTION('',(0.,0.,1.));
#268 = ORIENTED_EDGE('',*,*,#269,.T.);
#269 = EDGE_CURVE('',#262,#213,#270,.T.);
#270 = LINE('',#271,#272);
#271 = CARTESIAN_POINT('',(-10.9,-4.6,0.));
#272 = VECTOR('',#273,1.);
#273 = DIRECTION('',(1.,0.,0.));
#274 = FACE_BOUND('',#275,.T.);
#275 = EDGE_LOOP('',(#276));
#276 = ORIENTED_EDGE('',*,*,#108,.T.);
#277 = PLANE('',#278);
#278 = AXIS2_PLACEMENT_3D('',#279,#280,#281);
#279 = CARTESIAN_POINT('',(-10.9,-4.6,0.));
#280 = DIRECTION('',(0.,-1.,0.));
#281 = DIRECTION('',(1.,0.,0.));
#282 = ADVANCED_FACE('',(#283),#301,.F.);
#283 = FACE_BOUND('',#284,.T.);
#284 = EDGE_LOOP('',(#285,#286,#294,#300));
#285 = ORIENTED_EDGE('',*,*,#142,.T.);
#286 = ORIENTED_EDGE('',*,*,#287,.F.);
#287 = EDGE_CURVE('',#288,#133,#290,.T.);
#288 = VERTEX_POINT('',#289);
#289 = CARTESIAN_POINT('',(10.9,4.6,0.));
#290 = LINE('',#291,#292);
#291 = CARTESIAN_POINT('',(10.9,4.6,0.));
#292 = VECTOR('',#293,1.);
#293 = DIRECTION('',(-1.,0.,0.));
#294 = ORIENTED_EDGE('',*,*,#295,.F.);
#295 = EDGE_CURVE('',#238,#288,#296,.T.);
#296 = LINE('',#297,#298);
#297 = CARTESIAN_POINT('',(10.9,-4.6,0.));
#298 = VECTOR('',#299,1.);
#299 = DIRECTION('',(0.,1.,0.));
#300 = ORIENTED_EDGE('',*,*,#237,.F.);
#301 = PLANE('',#302);
#302 = AXIS2_PLACEMENT_3D('',#303,#304,#305);
#303 = CARTESIAN_POINT('',(0.,0.,0.));
#304 = DIRECTION('',(0.,0.,1.));
#305 = DIRECTION('',(1.,0.,-0.));
#306 = ADVANCED_FACE('',(#307),#332,.T.);
#307 = FACE_BOUND('',#308,.T.);
#308 = EDGE_LOOP('',(#309,#317,#318,#326));
#309 = ORIENTED_EDGE('',*,*,#310,.T.);
#310 = EDGE_CURVE('',#311,#262,#313,.T.);
#311 = VERTEX_POINT('',#312);
#312 = CARTESIAN_POINT('',(-10.9,4.6,0.));
#313 = LINE('',#314,#315);
#314 = CARTESIAN_POINT('',(-10.9,4.6,0.));
#315 = VECTOR('',#316,1.);
#316 = DIRECTION('',(0.,-1.,0.));
#317 = ORIENTED_EDGE('',*,*,#261,.T.);
#318 = ORIENTED_EDGE('',*,*,#319,.F.);
#319 = EDGE_CURVE('',#320,#254,#322,.T.);
#320 = VERTEX_POINT('',#321);
#321 = CARTESIAN_POINT('',(-10.9,4.6,11.1));
#322 = LINE('',#323,#324);
#323 = CARTESIAN_POINT('',(-10.9,4.6,11.1));
#324 = VECTOR('',#325,1.);
#325 = DIRECTION('',(0.,-1.,0.));
#326 = ORIENTED_EDGE('',*,*,#327,.F.);
#327 = EDGE_CURVE('',#311,#320,#328,.T.);
#328 = LINE('',#329,#330);
#329 = CARTESIAN_POINT('',(-10.9,4.6,0.));
#330 = VECTOR('',#331,1.);
#331 = DIRECTION('',(0.,0.,1.));
#332 = PLANE('',#333);
#333 = AXIS2_PLACEMENT_3D('',#334,#335,#336);
#334 = CARTESIAN_POINT('',(-10.9,4.6,0.));
#335 = DIRECTION('',(-1.,0.,0.));
#336 = DIRECTION('',(0.,-1.,0.));
#337 = ADVANCED_FACE('',(#338),#365,.T.);
#338 = FACE_BOUND('',#339,.T.);
#339 = EDGE_LOOP('',(#340,#341,#347,#348,#356,#362,#363,#364));
#340 = ORIENTED_EDGE('',*,*,#203,.T.);
#341 = ORIENTED_EDGE('',*,*,#342,.T.);
#342 = EDGE_CURVE('',#204,#311,#343,.T.);
#343 = LINE('',#344,#345);
#344 = CARTESIAN_POINT('',(10.9,4.6,0.));
#345 = VECTOR('',#346,1.);
#346 = DIRECTION('',(-1.,0.,0.));
#347 = ORIENTED_EDGE('',*,*,#327,.T.);
#348 = ORIENTED_EDGE('',*,*,#349,.F.);
#349 = EDGE_CURVE('',#350,#320,#352,.T.);
#350 = VERTEX_POINT('',#351);
#351 = CARTESIAN_POINT('',(10.9,4.6,11.1));
#352 = LINE('',#353,#354);
#353 = CARTESIAN_POINT('',(10.9,4.6,11.1));
#354 = VECTOR('',#355,1.);
#355 = DIRECTION('',(-1.,0.,0.));
#356 = ORIENTED_EDGE('',*,*,#357,.F.);
#357 = EDGE_CURVE('',#288,#350,#358,.T.);
#358 = LINE('',#359,#360);
#359 = CARTESIAN_POINT('',(10.9,4.6,0.));
#360 = VECTOR('',#361,1.);
#361 = DIRECTION('',(0.,0.,1.));
#362 = ORIENTED_EDGE('',*,*,#287,.T.);
#363 = ORIENTED_EDGE('',*,*,#132,.T.);
#364 = ORIENTED_EDGE('',*,*,#172,.T.);
#365 = PLANE('',#366);
#366 = AXIS2_PLACEMENT_3D('',#367,#368,#369);
#367 = CARTESIAN_POINT('',(10.9,4.6,0.));
#368 = DIRECTION('',(0.,1.,0.));
#369 = DIRECTION('',(-1.,0.,0.));
#370 = ADVANCED_FACE('',(#371),#382,.T.);
#371 = FACE_BOUND('',#372,.T.);
#372 = EDGE_LOOP('',(#373,#374,#375,#381));
#373 = ORIENTED_EDGE('',*,*,#295,.T.);
#374 = ORIENTED_EDGE('',*,*,#357,.T.);
#375 = ORIENTED_EDGE('',*,*,#376,.F.);
#376 = EDGE_CURVE('',#246,#350,#377,.T.);
#377 = LINE('',#378,#379);
#378 = CARTESIAN_POINT('',(10.9,-4.6,11.1));
#379 = VECTOR('',#380,1.);
#380 = DIRECTION('',(0.,1.,0.));
#381 = ORIENTED_EDGE('',*,*,#245,.F.);
#382 = PLANE('',#383);
#383 = AXIS2_PLACEMENT_3D('',#384,#385,#386);
#384 = CARTESIAN_POINT('',(10.9,-4.6,0.));
#385 = DIRECTION('',(1.,0.,0.));
#386 = DIRECTION('',(-0.,1.,0.));
#387 = ADVANCED_FACE('',(#388),#394,.T.);
#388 = FACE_BOUND('',#389,.T.);
#389 = EDGE_LOOP('',(#390,#391,#392,#393));
#390 = ORIENTED_EDGE('',*,*,#376,.T.);
#391 = ORIENTED_EDGE('',*,*,#349,.T.);
#392 = ORIENTED_EDGE('',*,*,#319,.T.);
#393 = ORIENTED_EDGE('',*,*,#253,.T.);
#394 = PLANE('',#395);
#395 = AXIS2_PLACEMENT_3D('',#396,#397,#398);
#396 = CARTESIAN_POINT('',(0.,0.,11.1));
#397 = DIRECTION('',(0.,0.,1.));
#398 = DIRECTION('',(1.,0.,-0.));
#399 = ADVANCED_FACE('',(#400),#406,.F.);
#400 = FACE_BOUND('',#401,.T.);
#401 = EDGE_LOOP('',(#402,#403,#404,#405));
#402 = ORIENTED_EDGE('',*,*,#220,.T.);
#403 = ORIENTED_EDGE('',*,*,#269,.F.);
#404 = ORIENTED_EDGE('',*,*,#310,.F.);
#405 = ORIENTED_EDGE('',*,*,#342,.F.);
#406 = PLANE('',#407);
#407 = AXIS2_PLACEMENT_3D('',#408,#409,#410);
#408 = CARTESIAN_POINT('',(0.,0.,0.));
#409 = DIRECTION('',(0.,0.,1.));
#410 = DIRECTION('',(1.,0.,-0.));
#411 = ( GEOMETRIC_REPRESENTATION_CONTEXT(3) 
GLOBAL_UNCERTAINTY_ASSIGNED_CONTEXT((#415)) GLOBAL_UNIT_ASSIGNED_CONTEXT
((#412,#413,#414)) REPRESENTATION_CONTEXT('Context #1',
  '3D Context with UNIT and UNCERTAINTY') );
#412 = ( LENGTH_UNIT() NAMED_UNIT(*) SI_UNIT(.MILLI.,.METRE.) );
#413 = ( NAMED_UNIT(*) PLANE_ANGLE_UNIT() SI_UNIT($,.RADIAN.) );
#414 = ( NAMED_UNIT(*) SI_UNIT($,.STERADIAN.) SOLID_ANGLE_UNIT() );
#415 = UNCERTAINTY_MEASURE_WITH_UNIT(LENGTH_MEASURE(1.E-07),#412,
  'distance_accuracy_value','confusion accuracy');
#416 = CONTEXT_DEPENDENT_SHAPE_REPRESENTATION(#417,#419);
#417 = ( REPRESENTATION_RELATIONSHIP('','',#83,#32) 
REPRESENTATION_RELATIONSHIP_WITH_TRANSFORMATION(#418) 
SHAPE_REPRESENTATION_RELATIONSHIP() );
#418 = ITEM_DEFINED_TRANSFORMATION('','',#11,#33);
#419 = PRODUCT_DEFINITION_SHAPE('Placement','Placement of an item',#420
  );
#420 = NEXT_ASSEMBLY_USAGE_OCCURRENCE('1','SIP-8','',#27,#78,$);
#421 = PRODUCT_RELATED_PRODUCT_CATEGORY('part',$,(#80));
#422 = SHAPE_DEFINITION_REPRESENTATION(#423,#429);
#423 = PRODUCT_DEFINITION_SHAPE('','',#424);
#424 = PRODUCT_DEFINITION('design','',#425,#428);
#425 = PRODUCT_DEFINITION_FORMATION('','',#426);
#426 = PRODUCT('SIP-001','SIP-001','',(#427));
#427 = PRODUCT_CONTEXT('',#2,'mechanical');
#428 = PRODUCT_DEFINITION_CONTEXT('part definition',#2,'design');
#429 = ADVANCED_BREP_SHAPE_REPRESENTATION('',(#11,#430),#580);
#430 = MANIFOLD_SOLID_BREP('',#431);
#431 = CLOSED_SHELL('',(#432,#472,#503,#527,#551,#568));
#432 = ADVANCED_FACE('',(#433),#467,.T.);
#433 = FACE_BOUND('',#434,.T.);
#434 = EDGE_LOOP('',(#435,#445,#453,#461));
#435 = ORIENTED_EDGE('',*,*,#436,.T.);
#436 = EDGE_CURVE('',#437,#439,#441,.T.);
#437 = VERTEX_POINT('',#438);
#438 = CARTESIAN_POINT('',(3.675,1.275,-2.54));
#439 = VERTEX_POINT('',#440);
#440 = CARTESIAN_POINT('',(3.675,1.525,-2.54));
#441 = LINE('',#442,#443);
#442 = CARTESIAN_POINT('',(3.675,1.525,-2.54));
#443 = VECTOR('',#444,1.);
#444 = DIRECTION('',(0.,1.,0.));
#445 = ORIENTED_EDGE('',*,*,#446,.T.);
#446 = EDGE_CURVE('',#439,#447,#449,.T.);
#447 = VERTEX_POINT('',#448);
#448 = CARTESIAN_POINT('',(3.925,1.525,-2.54));
#449 = LINE('',#450,#451);
#450 = CARTESIAN_POINT('',(3.925,1.525,-2.54));
#451 = VECTOR('',#452,1.);
#452 = DIRECTION('',(1.,0.,0.));
#453 = ORIENTED_EDGE('',*,*,#454,.T.);
#454 = EDGE_CURVE('',#447,#455,#457,.T.);
#455 = VERTEX_POINT('',#456);
#456 = CARTESIAN_POINT('',(3.925,1.275,-2.54));
#457 = LINE('',#458,#459);
#458 = CARTESIAN_POINT('',(3.925,1.275,-2.54));
#459 = VECTOR('',#460,1.);
#460 = DIRECTION('',(0.,-1.,0.));
#461 = ORIENTED_EDGE('',*,*,#462,.T.);
#462 = EDGE_CURVE('',#455,#437,#463,.T.);
#463 = LINE('',#464,#465);
#464 = CARTESIAN_POINT('',(3.675,1.275,-2.54));
#465 = VECTOR('',#466,1.);
#466 = DIRECTION('',(-1.,0.,0.));
#467 = PLANE('',#468);
#468 = AXIS2_PLACEMENT_3D('',#469,#470,#471);
#469 = CARTESIAN_POINT('',(3.8,1.4,-2.54));
#470 = DIRECTION('',(0.,0.,-1.));
#471 = DIRECTION('',(-1.,0.,0.));
#472 = ADVANCED_FACE('',(#473),#498,.T.);
#473 = FACE_BOUND('',#474,.T.);
#474 = EDGE_LOOP('',(#475,#485,#491,#492));
#475 = ORIENTED_EDGE('',*,*,#476,.F.);
#476 = EDGE_CURVE('',#477,#479,#481,.T.);
#477 = VERTEX_POINT('',#478);
#478 = CARTESIAN_POINT('',(3.675,1.525,0.5));
#479 = VERTEX_POINT('',#480);
#480 = CARTESIAN_POINT('',(3.675,1.275,0.5));
#481 = LINE('',#482,#483);
#482 = CARTESIAN_POINT('',(3.675,-1.5375,0.5));
#483 = VECTOR('',#484,1.);
#484 = DIRECTION('',(0.,-1.,0.));
#485 = ORIENTED_EDGE('',*,*,#486,.T.);
#486 = EDGE_CURVE('',#477,#439,#487,.T.);
#487 = LINE('',#488,#489);
#488 = CARTESIAN_POINT('',(3.675,1.525,0.));
#489 = VECTOR('',#490,1.);
#490 = DIRECTION('',(0.,0.,-1.));
#491 = ORIENTED_EDGE('',*,*,#436,.F.);
#492 = ORIENTED_EDGE('',*,*,#493,.T.);
#493 = EDGE_CURVE('',#437,#479,#494,.T.);
#494 = LINE('',#495,#496);
#495 = CARTESIAN_POINT('',(3.675,1.275,0.));
#496 = VECTOR('',#497,1.);
#497 = DIRECTION('',(0.,0.,1.));
#498 = PLANE('',#499);
#499 = AXIS2_PLACEMENT_3D('',#500,#501,#502);
#500 = CARTESIAN_POINT('',(3.675,1.525,0.));
#501 = DIRECTION('',(-1.,0.,0.));
#502 = DIRECTION('',(0.,-1.,0.));
#503 = ADVANCED_FACE('',(#504),#522,.T.);
#504 = FACE_BOUND('',#505,.T.);
#505 = EDGE_LOOP('',(#506,#514,#520,#521));
#506 = ORIENTED_EDGE('',*,*,#507,.F.);
#507 = EDGE_CURVE('',#508,#477,#510,.T.);
#508 = VERTEX_POINT('',#509);
#509 = CARTESIAN_POINT('',(3.925,1.525,0.5));
#510 = LINE('',#511,#512);
#511 = CARTESIAN_POINT('',(-2.989923085461,1.525,0.5));
#512 = VECTOR('',#513,1.);
#513 = DIRECTION('',(-1.,0.,0.));
#514 = ORIENTED_EDGE('',*,*,#515,.F.);
#515 = EDGE_CURVE('',#447,#508,#516,.T.);
#516 = LINE('',#517,#518);
#517 = CARTESIAN_POINT('',(3.925,1.525,0.));
#518 = VECTOR('',#519,1.);
#519 = DIRECTION('',(0.,0.,1.));
#520 = ORIENTED_EDGE('',*,*,#446,.F.);
#521 = ORIENTED_EDGE('',*,*,#486,.F.);
#522 = PLANE('',#523);
#523 = AXIS2_PLACEMENT_3D('',#524,#525,#526);
#524 = CARTESIAN_POINT('',(3.925,1.525,0.));
#525 = DIRECTION('',(0.,1.,0.));
#526 = DIRECTION('',(-1.,0.,0.));
#527 = ADVANCED_FACE('',(#528),#546,.T.);
#528 = FACE_BOUND('',#529,.T.);
#529 = EDGE_LOOP('',(#530,#538,#544,#545));
#530 = ORIENTED_EDGE('',*,*,#531,.F.);
#531 = EDGE_CURVE('',#532,#508,#534,.T.);
#532 = VERTEX_POINT('',#533);
#533 = CARTESIAN_POINT('',(3.925,1.275,0.5));
#534 = LINE('',#535,#536);
#535 = CARTESIAN_POINT('',(3.925,-1.6625,0.5));
#536 = VECTOR('',#537,1.);
#537 = DIRECTION('',(0.,1.,0.));
#538 = ORIENTED_EDGE('',*,*,#539,.F.);
#539 = EDGE_CURVE('',#455,#532,#540,.T.);
#540 = LINE('',#541,#542);
#541 = CARTESIAN_POINT('',(3.925,1.275,0.));
#542 = VECTOR('',#543,1.);
#543 = DIRECTION('',(0.,0.,1.));
#544 = ORIENTED_EDGE('',*,*,#454,.F.);
#545 = ORIENTED_EDGE('',*,*,#515,.T.);
#546 = PLANE('',#547);
#547 = AXIS2_PLACEMENT_3D('',#548,#549,#550);
#548 = CARTESIAN_POINT('',(3.925,1.275,0.));
#549 = DIRECTION('',(1.,0.,0.));
#550 = DIRECTION('',(-0.,1.,0.));
#551 = ADVANCED_FACE('',(#552),#563,.T.);
#552 = FACE_BOUND('',#553,.T.);
#553 = EDGE_LOOP('',(#554,#560,#561,#562));
#554 = ORIENTED_EDGE('',*,*,#555,.F.);
#555 = EDGE_CURVE('',#479,#532,#556,.T.);
#556 = LINE('',#557,#558);
#557 = CARTESIAN_POINT('',(-3.114923085461,1.275,0.5));
#558 = VECTOR('',#559,1.);
#559 = DIRECTION('',(1.,0.,0.));
#560 = ORIENTED_EDGE('',*,*,#493,.F.);
#561 = ORIENTED_EDGE('',*,*,#462,.F.);
#562 = ORIENTED_EDGE('',*,*,#539,.T.);
#563 = PLANE('',#564);
#564 = AXIS2_PLACEMENT_3D('',#565,#566,#567);
#565 = CARTESIAN_POINT('',(3.675,1.275,0.));
#566 = DIRECTION('',(0.,-1.,0.));
#567 = DIRECTION('',(1.,0.,0.));
#568 = ADVANCED_FACE('',(#569),#575,.T.);
#569 = FACE_BOUND('',#570,.T.);
#570 = EDGE_LOOP('',(#571,#572,#573,#574));
#571 = ORIENTED_EDGE('',*,*,#507,.T.);
#572 = ORIENTED_EDGE('',*,*,#476,.T.);
#573 = ORIENTED_EDGE('',*,*,#555,.T.);
#574 = ORIENTED_EDGE('',*,*,#531,.T.);
#575 = PLANE('',#576);
#576 = AXIS2_PLACEMENT_3D('',#577,#578,#579);
#577 = CARTESIAN_POINT('',(-9.904846170923,-4.6,0.5));
#578 = DIRECTION('',(0.,0.,1.));
#579 = DIRECTION('',(1.,0.,-0.));
#580 = ( GEOMETRIC_REPRESENTATION_CONTEXT(3) 
GLOBAL_UNCERTAINTY_ASSIGNED_CONTEXT((#584)) GLOBAL_UNIT_ASSIGNED_CONTEXT
((#581,#582,#583)) REPRESENTATION_CONTEXT('Context #1',
  '3D Context with UNIT and UNCERTAINTY') );
#581 = ( LENGTH_UNIT() NAMED_UNIT(*) SI_UNIT(.MILLI.,.METRE.) );
#582 = ( NAMED_UNIT(*) PLANE_ANGLE_UNIT() SI_UNIT($,.RADIAN.) );
#583 = ( NAMED_UNIT(*) SI_UNIT($,.STERADIAN.) SOLID_ANGLE_UNIT() );
#584 = UNCERTAINTY_MEASURE_WITH_UNIT(LENGTH_MEASURE(1.E-07),#581,
  'distance_accuracy_value','confusion accuracy');
#585 = CONTEXT_DEPENDENT_SHAPE_REPRESENTATION(#586,#588);
#586 = ( REPRESENTATION_RELATIONSHIP('','',#429,#32) 
REPRESENTATION_RELATIONSHIP_WITH_TRANSFORMATION(#587) 
SHAPE_REPRESENTATION_RELATIONSHIP() );
#587 = ITEM_DEFINED_TRANSFORMATION('','',#11,#37);
#588 = PRODUCT_DEFINITION_SHAPE('Placement','Placement of an item',#589
  );
#589 = NEXT_ASSEMBLY_USAGE_OCCURRENCE('2','SIP-001','',#27,#424,$);
#590 = PRODUCT_RELATED_PRODUCT_CATEGORY('part',$,(#426));
#591 = SHAPE_DEFINITION_REPRESENTATION(#592,#598);
#592 = PRODUCT_DEFINITION_SHAPE('','',#593);
#593 = PRODUCT_DEFINITION('design','',#594,#597);
#594 = PRODUCT_DEFINITION_FORMATION('','',#595);
#595 = PRODUCT('SIP-002','SIP-002','',(#596));
#596 = PRODUCT_CONTEXT('',#2,'mechanical');
#597 = PRODUCT_DEFINITION_CONTEXT('part definition',#2,'design');
#598 = ADVANCED_BREP_SHAPE_REPRESENTATION('',(#11,#599),#749);
#599 = MANIFOLD_SOLID_BREP('',#600);
#600 = CLOSED_SHELL('',(#601,#641,#672,#696,#720,#737));
#601 = ADVANCED_FACE('',(#602),#636,.T.);
#602 = FACE_BOUND('',#603,.T.);
#603 = EDGE_LOOP('',(#604,#614,#622,#630));
#604 = ORIENTED_EDGE('',*,*,#605,.T.);
#605 = EDGE_CURVE('',#606,#608,#610,.T.);
#606 = VERTEX_POINT('',#607);
#607 = CARTESIAN_POINT('',(-8.775,1.525,-2.54));
#608 = VERTEX_POINT('',#609);
#609 = CARTESIAN_POINT('',(-8.775,1.275,-2.54));
#610 = LINE('',#611,#612);
#611 = CARTESIAN_POINT('',(-8.775,1.275,-2.54));
#612 = VECTOR('',#613,1.);
#613 = DIRECTION('',(0.,-1.,0.));
#614 = ORIENTED_EDGE('',*,*,#615,.T.);
#615 = EDGE_CURVE('',#608,#616,#618,.T.);
#616 = VERTEX_POINT('',#617);
#617 = CARTESIAN_POINT('',(-9.025,1.275,-2.54));
#618 = LINE('',#619,#620);
#619 = CARTESIAN_POINT('',(-9.025,1.275,-2.54));
#620 = VECTOR('',#621,1.);
#621 = DIRECTION('',(-1.,0.,0.));
#622 = ORIENTED_EDGE('',*,*,#623,.T.);
#623 = EDGE_CURVE('',#616,#624,#626,.T.);
#624 = VERTEX_POINT('',#625);
#625 = CARTESIAN_POINT('',(-9.025,1.525,-2.54));
#626 = LINE('',#627,#628);
#627 = CARTESIAN_POINT('',(-9.025,1.525,-2.54));
#628 = VECTOR('',#629,1.);
#629 = DIRECTION('',(0.,1.,0.));
#630 = ORIENTED_EDGE('',*,*,#631,.T.);
#631 = EDGE_CURVE('',#624,#606,#632,.T.);
#632 = LINE('',#633,#634);
#633 = CARTESIAN_POINT('',(-8.775,1.525,-2.54));
#634 = VECTOR('',#635,1.);
#635 = DIRECTION('',(1.,0.,0.));
#636 = PLANE('',#637);
#637 = AXIS2_PLACEMENT_3D('',#638,#639,#640);
#638 = CARTESIAN_POINT('',(-8.9,1.4,-2.54));
#639 = DIRECTION('',(0.,0.,-1.));
#640 = DIRECTION('',(-1.,0.,0.));
#641 = ADVANCED_FACE('',(#642),#667,.T.);
#642 = FACE_BOUND('',#643,.T.);
#643 = EDGE_LOOP('',(#644,#654,#660,#661));
#644 = ORIENTED_EDGE('',*,*,#645,.F.);
#645 = EDGE_CURVE('',#646,#648,#650,.T.);
#646 = VERTEX_POINT('',#647);
#647 = CARTESIAN_POINT('',(-8.775,1.275,0.5));
#648 = VERTEX_POINT('',#649);
#649 = CARTESIAN_POINT('',(-8.775,1.525,0.5));
#650 = LINE('',#651,#652);
#651 = CARTESIAN_POINT('',(-8.775,-1.6625,0.5));
#652 = VECTOR('',#653,1.);
#653 = DIRECTION('',(0.,1.,0.));
#654 = ORIENTED_EDGE('',*,*,#655,.T.);
#655 = EDGE_CURVE('',#646,#608,#656,.T.);
#656 = LINE('',#657,#658);
#657 = CARTESIAN_POINT('',(-8.775,1.275,0.));
#658 = VECTOR('',#659,1.);
#659 = DIRECTION('',(0.,0.,-1.));
#660 = ORIENTED_EDGE('',*,*,#605,.F.);
#661 = ORIENTED_EDGE('',*,*,#662,.T.);
#662 = EDGE_CURVE('',#606,#648,#663,.T.);
#663 = LINE('',#664,#665);
#664 = CARTESIAN_POINT('',(-8.775,1.525,0.));
#665 = VECTOR('',#666,1.);
#666 = DIRECTION('',(0.,0.,1.));
#667 = PLANE('',#668);
#668 = AXIS2_PLACEMENT_3D('',#669,#670,#671);
#669 = CARTESIAN_POINT('',(-8.775,1.275,0.));
#670 = DIRECTION('',(1.,0.,0.));
#671 = DIRECTION('',(-0.,1.,0.));
#672 = ADVANCED_FACE('',(#673),#691,.T.);
#673 = FACE_BOUND('',#674,.T.);
#674 = EDGE_LOOP('',(#675,#683,#689,#690));
#675 = ORIENTED_EDGE('',*,*,#676,.F.);
#676 = EDGE_CURVE('',#677,#646,#679,.T.);
#677 = VERTEX_POINT('',#678);
#678 = CARTESIAN_POINT('',(-9.025,1.275,0.5));
#679 = LINE('',#680,#681);
#680 = CARTESIAN_POINT('',(-9.464923085461,1.275,0.5));
#681 = VECTOR('',#682,1.);
#682 = DIRECTION('',(1.,0.,0.));
#683 = ORIENTED_EDGE('',*,*,#684,.F.);
#684 = EDGE_CURVE('',#616,#677,#685,.T.);
#685 = LINE('',#686,#687);
#686 = CARTESIAN_POINT('',(-9.025,1.275,0.));
#687 = VECTOR('',#688,1.);
#688 = DIRECTION('',(0.,0.,1.));
#689 = ORIENTED_EDGE('',*,*,#615,.F.);
#690 = ORIENTED_EDGE('',*,*,#655,.F.);
#691 = PLANE('',#692);
#692 = AXIS2_PLACEMENT_3D('',#693,#694,#695);
#693 = CARTESIAN_POINT('',(-9.025,1.275,0.));
#694 = DIRECTION('',(0.,-1.,0.));
#695 = DIRECTION('',(1.,0.,0.));
#696 = ADVANCED_FACE('',(#697),#715,.T.);
#697 = FACE_BOUND('',#698,.T.);
#698 = EDGE_LOOP('',(#699,#707,#713,#714));
#699 = ORIENTED_EDGE('',*,*,#700,.F.);
#700 = EDGE_CURVE('',#701,#677,#703,.T.);
#701 = VERTEX_POINT('',#702);
#702 = CARTESIAN_POINT('',(-9.025,1.525,0.5));
#703 = LINE('',#704,#705);
#704 = CARTESIAN_POINT('',(-9.025,-1.5375,0.5));
#705 = VECTOR('',#706,1.);
#706 = DIRECTION('',(0.,-1.,0.));
#707 = ORIENTED_EDGE('',*,*,#708,.F.);
#708 = EDGE_CURVE('',#624,#701,#709,.T.);
#709 = LINE('',#710,#711);
#710 = CARTESIAN_POINT('',(-9.025,1.525,0.));
#711 = VECTOR('',#712,1.);
#712 = DIRECTION('',(0.,0.,1.));
#713 = ORIENTED_EDGE('',*,*,#623,.F.);
#714 = ORIENTED_EDGE('',*,*,#684,.T.);
#715 = PLANE('',#716);
#716 = AXIS2_PLACEMENT_3D('',#717,#718,#719);
#717 = CARTESIAN_POINT('',(-9.025,1.525,0.));
#718 = DIRECTION('',(-1.,0.,0.));
#719 = DIRECTION('',(0.,-1.,0.));
#720 = ADVANCED_FACE('',(#721),#732,.T.);
#721 = FACE_BOUND('',#722,.T.);
#722 = EDGE_LOOP('',(#723,#729,#730,#731));
#723 = ORIENTED_EDGE('',*,*,#724,.F.);
#724 = EDGE_CURVE('',#648,#701,#725,.T.);
#725 = LINE('',#726,#727);
#726 = CARTESIAN_POINT('',(-9.339923085461,1.525,0.5));
#727 = VECTOR('',#728,1.);
#728 = DIRECTION('',(-1.,0.,0.));
#729 = ORIENTED_EDGE('',*,*,#662,.F.);
#730 = ORIENTED_EDGE('',*,*,#631,.F.);
#731 = ORIENTED_EDGE('',*,*,#708,.T.);
#732 = PLANE('',#733);
#733 = AXIS2_PLACEMENT_3D('',#734,#735,#736);
#734 = CARTESIAN_POINT('',(-8.775,1.525,0.));
#735 = DIRECTION('',(0.,1.,0.));
#736 = DIRECTION('',(-1.,0.,0.));
#737 = ADVANCED_FACE('',(#738),#744,.T.);
#738 = FACE_BOUND('',#739,.T.);
#739 = EDGE_LOOP('',(#740,#741,#742,#743));
#740 = ORIENTED_EDGE('',*,*,#676,.T.);
#741 = ORIENTED_EDGE('',*,*,#645,.T.);
#742 = ORIENTED_EDGE('',*,*,#724,.T.);
#743 = ORIENTED_EDGE('',*,*,#700,.T.);
#744 = PLANE('',#745);
#745 = AXIS2_PLACEMENT_3D('',#746,#747,#748);
#746 = CARTESIAN_POINT('',(-9.904846170923,-4.6,0.5));
#747 = DIRECTION('',(0.,0.,1.));
#748 = DIRECTION('',(1.,0.,-0.));
#749 = ( GEOMETRIC_REPRESENTATION_CONTEXT(3) 
GLOBAL_UNCERTAINTY_ASSIGNED_CONTEXT((#753)) GLOBAL_UNIT_ASSIGNED_CONTEXT
((#750,#751,#752)) REPRESENTATION_CONTEXT('Context #1',
  '3D Context with UNIT and UNCERTAINTY') );
#750 = ( LENGTH_UNIT() NAMED_UNIT(*) SI_UNIT(.MILLI.,.METRE.) );
#751 = ( NAMED_UNIT(*) PLANE_ANGLE_UNIT() SI_UNIT($,.RADIAN.) );
#752 = ( NAMED_UNIT(*) SI_UNIT($,.STERADIAN.) SOLID_ANGLE_UNIT() );
#753 = UNCERTAINTY_MEASURE_WITH_UNIT(LENGTH_MEASURE(1.E-07),#750,
  'distance_accuracy_value','confusion accuracy');
#754 = CONTEXT_DEPENDENT_SHAPE_REPRESENTATION(#755,#757);
#755 = ( REPRESENTATION_RELATIONSHIP('','',#598,#32) 
REPRESENTATION_RELATIONSHIP_WITH_TRANSFORMATION(#756) 
SHAPE_REPRESENTATION_RELATIONSHIP() );
#756 = ITEM_DEFINED_TRANSFORMATION('','',#11,#41);
#757 = PRODUCT_DEFINITION_SHAPE('Placement','Placement of an item',#758
  );
#758 = NEXT_ASSEMBLY_USAGE_OCCURRENCE('3','SIP-002','',#27,#593,$);
#759 = PRODUCT_RELATED_PRODUCT_CATEGORY('part',$,(#595));
#760 = SHAPE_DEFINITION_REPRESENTATION(#761,#767);
#761 = PRODUCT_DEFINITION_SHAPE('','',#762);
#762 = PRODUCT_DEFINITION('design','',#763,#766);
#763 = PRODUCT_DEFINITION_FORMATION('','',#764);
#764 = PRODUCT('SIP-003','SIP-003','',(#765));
#765 = PRODUCT_CONTEXT('',#2,'mechanical');
#766 = PRODUCT_DEFINITION_CONTEXT('part definition',#2,'design');
#767 = ADVANCED_BREP_SHAPE_REPRESENTATION('',(#11,#768),#918);
#768 = MANIFOLD_SOLID_BREP('',#769);
#769 = CLOSED_SHELL('',(#770,#810,#841,#865,#889,#906));
#770 = ADVANCED_FACE('',(#771),#805,.T.);
#771 = FACE_BOUND('',#772,.T.);
#772 = EDGE_LOOP('',(#773,#783,#791,#799));
#773 = ORIENTED_EDGE('',*,*,#774,.T.);
#774 = EDGE_CURVE('',#775,#777,#779,.T.);
#775 = VERTEX_POINT('',#776);
#776 = CARTESIAN_POINT('',(8.755,1.275,-2.54));
#777 = VERTEX_POINT('',#778);
#778 = CARTESIAN_POINT('',(8.755,1.525,-2.54));
#779 = LINE('',#780,#781);
#780 = CARTESIAN_POINT('',(8.755,1.525,-2.54));
#781 = VECTOR('',#782,1.);
#782 = DIRECTION('',(0.,1.,0.));
#783 = ORIENTED_EDGE('',*,*,#784,.T.);
#784 = EDGE_CURVE('',#777,#785,#787,.T.);
#785 = VERTEX_POINT('',#786);
#786 = CARTESIAN_POINT('',(9.005,1.525,-2.54));
#787 = LINE('',#788,#789);
#788 = CARTESIAN_POINT('',(9.005,1.525,-2.54));
#789 = VECTOR('',#790,1.);
#790 = DIRECTION('',(1.,0.,0.));
#791 = ORIENTED_EDGE('',*,*,#792,.T.);
#792 = EDGE_CURVE('',#785,#793,#795,.T.);
#793 = VERTEX_POINT('',#794);
#794 = CARTESIAN_POINT('',(9.005,1.275,-2.54));
#795 = LINE('',#796,#797);
#796 = CARTESIAN_POINT('',(9.005,1.275,-2.54));
#797 = VECTOR('',#798,1.);
#798 = DIRECTION('',(0.,-1.,0.));
#799 = ORIENTED_EDGE('',*,*,#800,.T.);
#800 = EDGE_CURVE('',#793,#775,#801,.T.);
#801 = LINE('',#802,#803);
#802 = CARTESIAN_POINT('',(8.755,1.275,-2.54));
#803 = VECTOR('',#804,1.);
#804 = DIRECTION('',(-1.,0.,0.));
#805 = PLANE('',#806);
#806 = AXIS2_PLACEMENT_3D('',#807,#808,#809);
#807 = CARTESIAN_POINT('',(8.88,1.4,-2.54));
#808 = DIRECTION('',(0.,0.,-1.));
#809 = DIRECTION('',(-1.,0.,0.));
#810 = ADVANCED_FACE('',(#811),#836,.T.);
#811 = FACE_BOUND('',#812,.T.);
#812 = EDGE_LOOP('',(#813,#823,#829,#830));
#813 = ORIENTED_EDGE('',*,*,#814,.F.);
#814 = EDGE_CURVE('',#815,#817,#819,.T.);
#815 = VERTEX_POINT('',#816);
#816 = CARTESIAN_POINT('',(8.755,1.525,0.5));
#817 = VERTEX_POINT('',#818);
#818 = CARTESIAN_POINT('',(8.755,1.275,0.5));
#819 = LINE('',#820,#821);
#820 = CARTESIAN_POINT('',(8.755,-1.5375,0.5));
#821 = VECTOR('',#822,1.);
#822 = DIRECTION('',(0.,-1.,0.));
#823 = ORIENTED_EDGE('',*,*,#824,.T.);
#824 = EDGE_CURVE('',#815,#777,#825,.T.);
#825 = LINE('',#826,#827);
#826 = CARTESIAN_POINT('',(8.755,1.525,0.));
#827 = VECTOR('',#828,1.);
#828 = DIRECTION('',(0.,0.,-1.));
#829 = ORIENTED_EDGE('',*,*,#774,.F.);
#830 = ORIENTED_EDGE('',*,*,#831,.T.);
#831 = EDGE_CURVE('',#775,#817,#832,.T.);
#832 = LINE('',#833,#834);
#833 = CARTESIAN_POINT('',(8.755,1.275,0.));
#834 = VECTOR('',#835,1.);
#835 = DIRECTION('',(0.,0.,1.));
#836 = PLANE('',#837);
#837 = AXIS2_PLACEMENT_3D('',#838,#839,#840);
#838 = CARTESIAN_POINT('',(8.755,1.525,0.));
#839 = DIRECTION('',(-1.,0.,0.));
#840 = DIRECTION('',(0.,-1.,0.));
#841 = ADVANCED_FACE('',(#842),#860,.T.);
#842 = FACE_BOUND('',#843,.T.);
#843 = EDGE_LOOP('',(#844,#852,#858,#859));
#844 = ORIENTED_EDGE('',*,*,#845,.F.);
#845 = EDGE_CURVE('',#846,#815,#848,.T.);
#846 = VERTEX_POINT('',#847);
#847 = CARTESIAN_POINT('',(9.005,1.525,0.5));
#848 = LINE('',#849,#850);
#849 = CARTESIAN_POINT('',(-0.449923085461,1.525,0.5));
#850 = VECTOR('',#851,1.);
#851 = DIRECTION('',(-1.,0.,0.));
#852 = ORIENTED_EDGE('',*,*,#853,.F.);
#853 = EDGE_CURVE('',#785,#846,#854,.T.);
#854 = LINE('',#855,#856);
#855 = CARTESIAN_POINT('',(9.005,1.525,0.));
#856 = VECTOR('',#857,1.);
#857 = DIRECTION('',(0.,0.,1.));
#858 = ORIENTED_EDGE('',*,*,#784,.F.);
#859 = ORIENTED_EDGE('',*,*,#824,.F.);
#860 = PLANE('',#861);
#861 = AXIS2_PLACEMENT_3D('',#862,#863,#864);
#862 = CARTESIAN_POINT('',(9.005,1.525,0.));
#863 = DIRECTION('',(0.,1.,0.));
#864 = DIRECTION('',(-1.,0.,0.));
#865 = ADVANCED_FACE('',(#866),#884,.T.);
#866 = FACE_BOUND('',#867,.T.);
#867 = EDGE_LOOP('',(#868,#876,#882,#883));
#868 = ORIENTED_EDGE('',*,*,#869,.F.);
#869 = EDGE_CURVE('',#870,#846,#872,.T.);
#870 = VERTEX_POINT('',#871);
#871 = CARTESIAN_POINT('',(9.005,1.275,0.5));
#872 = LINE('',#873,#874);
#873 = CARTESIAN_POINT('',(9.005,-1.6625,0.5));
#874 = VECTOR('',#875,1.);
#875 = DIRECTION('',(0.,1.,0.));
#876 = ORIENTED_EDGE('',*,*,#877,.F.);
#877 = EDGE_CURVE('',#793,#870,#878,.T.);
#878 = LINE('',#879,#880);
#879 = CARTESIAN_POINT('',(9.005,1.275,0.));
#880 = VECTOR('',#881,1.);
#881 = DIRECTION('',(0.,0.,1.));
#882 = ORIENTED_EDGE('',*,*,#792,.F.);
#883 = ORIENTED_EDGE('',*,*,#853,.T.);
#884 = PLANE('',#885);
#885 = AXIS2_PLACEMENT_3D('',#886,#887,#888);
#886 = CARTESIAN_POINT('',(9.005,1.275,0.));
#887 = DIRECTION('',(1.,0.,0.));
#888 = DIRECTION('',(-0.,1.,0.));
#889 = ADVANCED_FACE('',(#890),#901,.T.);
#890 = FACE_BOUND('',#891,.T.);
#891 = EDGE_LOOP('',(#892,#898,#899,#900));
#892 = ORIENTED_EDGE('',*,*,#893,.F.);
#893 = EDGE_CURVE('',#817,#870,#894,.T.);
#894 = LINE('',#895,#896);
#895 = CARTESIAN_POINT('',(-0.574923085461,1.275,0.5));
#896 = VECTOR('',#897,1.);
#897 = DIRECTION('',(1.,0.,0.));
#898 = ORIENTED_EDGE('',*,*,#831,.F.);
#899 = ORIENTED_EDGE('',*,*,#800,.F.);
#900 = ORIENTED_EDGE('',*,*,#877,.T.);
#901 = PLANE('',#902);
#902 = AXIS2_PLACEMENT_3D('',#903,#904,#905);
#903 = CARTESIAN_POINT('',(8.755,1.275,0.));
#904 = DIRECTION('',(0.,-1.,0.));
#905 = DIRECTION('',(1.,0.,0.));
#906 = ADVANCED_FACE('',(#907),#913,.T.);
#907 = FACE_BOUND('',#908,.T.);
#908 = EDGE_LOOP('',(#909,#910,#911,#912));
#909 = ORIENTED_EDGE('',*,*,#845,.T.);
#910 = ORIENTED_EDGE('',*,*,#814,.T.);
#911 = ORIENTED_EDGE('',*,*,#893,.T.);
#912 = ORIENTED_EDGE('',*,*,#869,.T.);
#913 = PLANE('',#914);
#914 = AXIS2_PLACEMENT_3D('',#915,#916,#917);
#915 = CARTESIAN_POINT('',(-9.904846170923,-4.6,0.5));
#916 = DIRECTION('',(0.,0.,1.));
#917 = DIRECTION('',(1.,0.,-0.));
#918 = ( GEOMETRIC_REPRESENTATION_CONTEXT(3) 
GLOBAL_UNCERTAINTY_ASSIGNED_CONTEXT((#922)) GLOBAL_UNIT_ASSIGNED_CONTEXT
((#919,#920,#921)) REPRESENTATION_CONTEXT('Context #1',
  '3D Context with UNIT and UNCERTAINTY') );
#919 = ( LENGTH_UNIT() NAMED_UNIT(*) SI_UNIT(.MILLI.,.METRE.) );
#920 = ( NAMED_UNIT(*) PLANE_ANGLE_UNIT() SI_UNIT($,.RADIAN.) );
#921 = ( NAMED_UNIT(*) SI_UNIT($,.STERADIAN.) SOLID_ANGLE_UNIT() );
#922 = UNCERTAINTY_MEASURE_WITH_UNIT(LENGTH_MEASURE(1.E-07),#919,
  'distance_accuracy_value','confusion accuracy');
#923 = CONTEXT_DEPENDENT_SHAPE_REPRESENTATION(#924,#926);
#924 = ( REPRESENTATION_RELATIONSHIP('','',#767,#32) 
REPRESENTATION_RELATIONSHIP_WITH_TRANSFORMATION(#925) 
SHAPE_REPRESENTATION_RELATIONSHIP() );
#925 = ITEM_DEFINED_TRANSFORMATION('','',#11,#45);
#926 = PRODUCT_DEFINITION_SHAPE('Placement','Placement of an item',#927
  );
#927 = NEXT_ASSEMBLY_USAGE_OCCURRENCE('4','SIP-003','',#27,#762,$);
#928 = PRODUCT_RELATED_PRODUCT_CATEGORY('part',$,(#764));
#929 = SHAPE_DEFINITION_REPRESENTATION(#930,#936);
#930 = PRODUCT_DEFINITION_SHAPE('','',#931);
#931 = PRODUCT_DEFINITION('design','',#932,#935);
#932 = PRODUCT_DEFINITION_FORMATION('','',#933);
#933 = PRODUCT('SIP-004','SIP-004','',(#934));
#934 = PRODUCT_CONTEXT('',#2,'mechanical');
#935 = PRODUCT_DEFINITION_CONTEXT('part definition',#2,'design');
#936 = ADVANCED_BREP_SHAPE_REPRESENTATION('',(#11,#937),#1087);
#937 = MANIFOLD_SOLID_BREP('',#938);
#938 = CLOSED_SHELL('',(#939,#979,#1010,#1034,#1058,#1075));
#939 = ADVANCED_FACE('',(#940),#974,.T.);
#940 = FACE_BOUND('',#941,.T.);
#941 = EDGE_LOOP('',(#942,#952,#960,#968));
#942 = ORIENTED_EDGE('',*,*,#943,.T.);
#943 = EDGE_CURVE('',#944,#946,#948,.T.);
#944 = VERTEX_POINT('',#945);
#945 = CARTESIAN_POINT('',(-6.485,1.275,-2.54));
#946 = VERTEX_POINT('',#947);
#947 = CARTESIAN_POINT('',(-6.485,1.525,-2.54));
#948 = LINE('',#949,#950);
#949 = CARTESIAN_POINT('',(-6.485,1.525,-2.54));
#950 = VECTOR('',#951,1.);
#951 = DIRECTION('',(0.,1.,0.));
#952 = ORIENTED_EDGE('',*,*,#953,.T.);
#953 = EDGE_CURVE('',#946,#954,#956,.T.);
#954 = VERTEX_POINT('',#955);
#955 = CARTESIAN_POINT('',(-6.235,1.525,-2.54));
#956 = LINE('',#957,#958);
#957 = CARTESIAN_POINT('',(-6.235,1.525,-2.54));
#958 = VECTOR('',#959,1.);
#959 = DIRECTION('',(1.,0.,0.));
#960 = ORIENTED_EDGE('',*,*,#961,.T.);
#961 = EDGE_CURVE('',#954,#962,#964,.T.);
#962 = VERTEX_POINT('',#963);
#963 = CARTESIAN_POINT('',(-6.235,1.275,-2.54));
#964 = LINE('',#965,#966);
#965 = CARTESIAN_POINT('',(-6.235,1.275,-2.54));
#966 = VECTOR('',#967,1.);
#967 = DIRECTION('',(0.,-1.,0.));
#968 = ORIENTED_EDGE('',*,*,#969,.T.);
#969 = EDGE_CURVE('',#962,#944,#970,.T.);
#970 = LINE('',#971,#972);
#971 = CARTESIAN_POINT('',(-6.485,1.275,-2.54));
#972 = VECTOR('',#973,1.);
#973 = DIRECTION('',(-1.,0.,0.));
#974 = PLANE('',#975);
#975 = AXIS2_PLACEMENT_3D('',#976,#977,#978);
#976 = CARTESIAN_POINT('',(-6.36,1.4,-2.54));
#977 = DIRECTION('',(0.,0.,-1.));
#978 = DIRECTION('',(-1.,0.,0.));
#979 = ADVANCED_FACE('',(#980),#1005,.T.);
#980 = FACE_BOUND('',#981,.T.);
#981 = EDGE_LOOP('',(#982,#992,#998,#999));
#982 = ORIENTED_EDGE('',*,*,#983,.F.);
#983 = EDGE_CURVE('',#984,#986,#988,.T.);
#984 = VERTEX_POINT('',#985);
#985 = CARTESIAN_POINT('',(-6.485,1.525,0.5));
#986 = VERTEX_POINT('',#987);
#987 = CARTESIAN_POINT('',(-6.485,1.275,0.5));
#988 = LINE('',#989,#990);
#989 = CARTESIAN_POINT('',(-6.485,-1.5375,0.5));
#990 = VECTOR('',#991,1.);
#991 = DIRECTION('',(0.,-1.,0.));
#992 = ORIENTED_EDGE('',*,*,#993,.T.);
#993 = EDGE_CURVE('',#984,#946,#994,.T.);
#994 = LINE('',#995,#996);
#995 = CARTESIAN_POINT('',(-6.485,1.525,0.));
#996 = VECTOR('',#997,1.);
#997 = DIRECTION('',(0.,0.,-1.));
#998 = ORIENTED_EDGE('',*,*,#943,.F.);
#999 = ORIENTED_EDGE('',*,*,#1000,.T.);
#1000 = EDGE_CURVE('',#944,#986,#1001,.T.);
#1001 = LINE('',#1002,#1003);
#1002 = CARTESIAN_POINT('',(-6.485,1.275,0.));
#1003 = VECTOR('',#1004,1.);
#1004 = DIRECTION('',(0.,0.,1.));
#1005 = PLANE('',#1006);
#1006 = AXIS2_PLACEMENT_3D('',#1007,#1008,#1009);
#1007 = CARTESIAN_POINT('',(-6.485,1.525,0.));
#1008 = DIRECTION('',(-1.,0.,0.));
#1009 = DIRECTION('',(0.,-1.,0.));
#1010 = ADVANCED_FACE('',(#1011),#1029,.T.);
#1011 = FACE_BOUND('',#1012,.T.);
#1012 = EDGE_LOOP('',(#1013,#1021,#1027,#1028));
#1013 = ORIENTED_EDGE('',*,*,#1014,.F.);
#1014 = EDGE_CURVE('',#1015,#984,#1017,.T.);
#1015 = VERTEX_POINT('',#1016);
#1016 = CARTESIAN_POINT('',(-6.235,1.525,0.5));
#1017 = LINE('',#1018,#1019);
#1018 = CARTESIAN_POINT('',(-8.069923085461,1.525,0.5));
#1019 = VECTOR('',#1020,1.);
#1020 = DIRECTION('',(-1.,0.,0.));
#1021 = ORIENTED_EDGE('',*,*,#1022,.F.);
#1022 = EDGE_CURVE('',#954,#1015,#1023,.T.);
#1023 = LINE('',#1024,#1025);
#1024 = CARTESIAN_POINT('',(-6.235,1.525,0.));
#1025 = VECTOR('',#1026,1.);
#1026 = DIRECTION('',(0.,0.,1.));
#1027 = ORIENTED_EDGE('',*,*,#953,.F.);
#1028 = ORIENTED_EDGE('',*,*,#993,.F.);
#1029 = PLANE('',#1030);
#1030 = AXIS2_PLACEMENT_3D('',#1031,#1032,#1033);
#1031 = CARTESIAN_POINT('',(-6.235,1.525,0.));
#1032 = DIRECTION('',(0.,1.,0.));
#1033 = DIRECTION('',(-1.,0.,0.));
#1034 = ADVANCED_FACE('',(#1035),#1053,.T.);
#1035 = FACE_BOUND('',#1036,.T.);
#1036 = EDGE_LOOP('',(#1037,#1045,#1051,#1052));
#1037 = ORIENTED_EDGE('',*,*,#1038,.F.);
#1038 = EDGE_CURVE('',#1039,#1015,#1041,.T.);
#1039 = VERTEX_POINT('',#1040);
#1040 = CARTESIAN_POINT('',(-6.235,1.275,0.5));
#1041 = LINE('',#1042,#1043);
#1042 = CARTESIAN_POINT('',(-6.235,-1.6625,0.5));
#1043 = VECTOR('',#1044,1.);
#1044 = DIRECTION('',(0.,1.,0.));
#1045 = ORIENTED_EDGE('',*,*,#1046,.F.);
#1046 = EDGE_CURVE('',#962,#1039,#1047,.T.);
#1047 = LINE('',#1048,#1049);
#1048 = CARTESIAN_POINT('',(-6.235,1.275,0.));
#1049 = VECTOR('',#1050,1.);
#1050 = DIRECTION('',(0.,0.,1.));
#1051 = ORIENTED_EDGE('',*,*,#961,.F.);
#1052 = ORIENTED_EDGE('',*,*,#1022,.T.);
#1053 = PLANE('',#1054);
#1054 = AXIS2_PLACEMENT_3D('',#1055,#1056,#1057);
#1055 = CARTESIAN_POINT('',(-6.235,1.275,0.));
#1056 = DIRECTION('',(1.,0.,0.));
#1057 = DIRECTION('',(-0.,1.,0.));
#1058 = ADVANCED_FACE('',(#1059),#1070,.T.);
#1059 = FACE_BOUND('',#1060,.T.);
#1060 = EDGE_LOOP('',(#1061,#1067,#1068,#1069));
#1061 = ORIENTED_EDGE('',*,*,#1062,.F.);
#1062 = EDGE_CURVE('',#986,#1039,#1063,.T.);
#1063 = LINE('',#1064,#1065);
#1064 = CARTESIAN_POINT('',(-8.194923085461,1.275,0.5));
#1065 = VECTOR('',#1066,1.);
#1066 = DIRECTION('',(1.,0.,0.));
#1067 = ORIENTED_EDGE('',*,*,#1000,.F.);
#1068 = ORIENTED_EDGE('',*,*,#969,.F.);
#1069 = ORIENTED_EDGE('',*,*,#1046,.T.);
#1070 = PLANE('',#1071);
#1071 = AXIS2_PLACEMENT_3D('',#1072,#1073,#1074);
#1072 = CARTESIAN_POINT('',(-6.485,1.275,0.));
#1073 = DIRECTION('',(0.,-1.,0.));
#1074 = DIRECTION('',(1.,0.,0.));
#1075 = ADVANCED_FACE('',(#1076),#1082,.T.);
#1076 = FACE_BOUND('',#1077,.T.);
#1077 = EDGE_LOOP('',(#1078,#1079,#1080,#1081));
#1078 = ORIENTED_EDGE('',*,*,#1014,.T.);
#1079 = ORIENTED_EDGE('',*,*,#983,.T.);
#1080 = ORIENTED_EDGE('',*,*,#1062,.T.);
#1081 = ORIENTED_EDGE('',*,*,#1038,.T.);
#1082 = PLANE('',#1083);
#1083 = AXIS2_PLACEMENT_3D('',#1084,#1085,#1086);
#1084 = CARTESIAN_POINT('',(-9.904846170923,-4.6,0.5));
#1085 = DIRECTION('',(0.,0.,1.));
#1086 = DIRECTION('',(1.,0.,-0.));
#1087 = ( GEOMETRIC_REPRESENTATION_CONTEXT(3) 
GLOBAL_UNCERTAINTY_ASSIGNED_CONTEXT((#1091)) 
GLOBAL_UNIT_ASSIGNED_CONTEXT((#1088,#1089,#1090)) REPRESENTATION_CONTEXT
('Context #1','3D Context with UNIT and UNCERTAINTY') );
#1088 = ( LENGTH_UNIT() NAMED_UNIT(*) SI_UNIT(.MILLI.,.METRE.) );
#1089 = ( NAMED_UNIT(*) PLANE_ANGLE_UNIT() SI_UNIT($,.RADIAN.) );
#1090 = ( NAMED_UNIT(*) SI_UNIT($,.STERADIAN.) SOLID_ANGLE_UNIT() );
#1091 = UNCERTAINTY_MEASURE_WITH_UNIT(LENGTH_MEASURE(1.E-07),#1088,
  'distance_accuracy_value','confusion accuracy');
#1092 = CONTEXT_DEPENDENT_SHAPE_REPRESENTATION(#1093,#1095);
#1093 = ( REPRESENTATION_RELATIONSHIP('','',#936,#32) 
REPRESENTATION_RELATIONSHIP_WITH_TRANSFORMATION(#1094) 
SHAPE_REPRESENTATION_RELATIONSHIP() );
#1094 = ITEM_DEFINED_TRANSFORMATION('','',#11,#49);
#1095 = PRODUCT_DEFINITION_SHAPE('Placement','Placement of an item',
  #1096);
#1096 = NEXT_ASSEMBLY_USAGE_OCCURRENCE('5','SIP-004','',#27,#931,$);
#1097 = PRODUCT_RELATED_PRODUCT_CATEGORY('part',$,(#933));
#1098 = SHAPE_DEFINITION_REPRESENTATION(#1099,#1105);
#1099 = PRODUCT_DEFINITION_SHAPE('','',#1100);
#1100 = PRODUCT_DEFINITION('design','',#1101,#1104);
#1101 = PRODUCT_DEFINITION_FORMATION('','',#1102);
#1102 = PRODUCT('SIP-005','SIP-005','',(#1103));
#1103 = PRODUCT_CONTEXT('',#2,'mechanical');
#1104 = PRODUCT_DEFINITION_CONTEXT('part definition',#2,'design');
#1105 = ADVANCED_BREP_SHAPE_REPRESENTATION('',(#11,#1106),#1256);
#1106 = MANIFOLD_SOLID_BREP('',#1107);
#1107 = CLOSED_SHELL('',(#1108,#1148,#1179,#1203,#1227,#1244));
#1108 = ADVANCED_FACE('',(#1109),#1143,.T.);
#1109 = FACE_BOUND('',#1110,.T.);
#1110 = EDGE_LOOP('',(#1111,#1121,#1129,#1137));
#1111 = ORIENTED_EDGE('',*,*,#1112,.T.);
#1112 = EDGE_CURVE('',#1113,#1115,#1117,.T.);
#1113 = VERTEX_POINT('',#1114);
#1114 = CARTESIAN_POINT('',(-3.945,1.275,-2.54));
#1115 = VERTEX_POINT('',#1116);
#1116 = CARTESIAN_POINT('',(-3.945,1.525,-2.54));
#1117 = LINE('',#1118,#1119);
#1118 = CARTESIAN_POINT('',(-3.945,1.525,-2.54));
#1119 = VECTOR('',#1120,1.);
#1120 = DIRECTION('',(0.,1.,0.));
#1121 = ORIENTED_EDGE('',*,*,#1122,.T.);
#1122 = EDGE_CURVE('',#1115,#1123,#1125,.T.);
#1123 = VERTEX_POINT('',#1124);
#1124 = CARTESIAN_POINT('',(-3.695,1.525,-2.54));
#1125 = LINE('',#1126,#1127);
#1126 = CARTESIAN_POINT('',(-3.695,1.525,-2.54));
#1127 = VECTOR('',#1128,1.);
#1128 = DIRECTION('',(1.,0.,0.));
#1129 = ORIENTED_EDGE('',*,*,#1130,.T.);
#1130 = EDGE_CURVE('',#1123,#1131,#1133,.T.);
#1131 = VERTEX_POINT('',#1132);
#1132 = CARTESIAN_POINT('',(-3.695,1.275,-2.54));
#1133 = LINE('',#1134,#1135);
#1134 = CARTESIAN_POINT('',(-3.695,1.275,-2.54));
#1135 = VECTOR('',#1136,1.);
#1136 = DIRECTION('',(0.,-1.,0.));
#1137 = ORIENTED_EDGE('',*,*,#1138,.T.);
#1138 = EDGE_CURVE('',#1131,#1113,#1139,.T.);
#1139 = LINE('',#1140,#1141);
#1140 = CARTESIAN_POINT('',(-3.945,1.275,-2.54));
#1141 = VECTOR('',#1142,1.);
#1142 = DIRECTION('',(-1.,0.,0.));
#1143 = PLANE('',#1144);
#1144 = AXIS2_PLACEMENT_3D('',#1145,#1146,#1147);
#1145 = CARTESIAN_POINT('',(-3.82,1.4,-2.54));
#1146 = DIRECTION('',(0.,0.,-1.));
#1147 = DIRECTION('',(-1.,0.,0.));
#1148 = ADVANCED_FACE('',(#1149),#1174,.T.);
#1149 = FACE_BOUND('',#1150,.T.);
#1150 = EDGE_LOOP('',(#1151,#1161,#1167,#1168));
#1151 = ORIENTED_EDGE('',*,*,#1152,.F.);
#1152 = EDGE_CURVE('',#1153,#1155,#1157,.T.);
#1153 = VERTEX_POINT('',#1154);
#1154 = CARTESIAN_POINT('',(-3.945,1.525,0.5));
#1155 = VERTEX_POINT('',#1156);
#1156 = CARTESIAN_POINT('',(-3.945,1.275,0.5));
#1157 = LINE('',#1158,#1159);
#1158 = CARTESIAN_POINT('',(-3.945,-1.5375,0.5));
#1159 = VECTOR('',#1160,1.);
#1160 = DIRECTION('',(0.,-1.,0.));
#1161 = ORIENTED_EDGE('',*,*,#1162,.T.);
#1162 = EDGE_CURVE('',#1153,#1115,#1163,.T.);
#1163 = LINE('',#1164,#1165);
#1164 = CARTESIAN_POINT('',(-3.945,1.525,0.));
#1165 = VECTOR('',#1166,1.);
#1166 = DIRECTION('',(0.,0.,-1.));
#1167 = ORIENTED_EDGE('',*,*,#1112,.F.);
#1168 = ORIENTED_EDGE('',*,*,#1169,.T.);
#1169 = EDGE_CURVE('',#1113,#1155,#1170,.T.);
#1170 = LINE('',#1171,#1172);
#1171 = CARTESIAN_POINT('',(-3.945,1.275,0.));
#1172 = VECTOR('',#1173,1.);
#1173 = DIRECTION('',(0.,0.,1.));
#1174 = PLANE('',#1175);
#1175 = AXIS2_PLACEMENT_3D('',#1176,#1177,#1178);
#1176 = CARTESIAN_POINT('',(-3.945,1.525,0.));
#1177 = DIRECTION('',(-1.,0.,0.));
#1178 = DIRECTION('',(0.,-1.,0.));
#1179 = ADVANCED_FACE('',(#1180),#1198,.T.);
#1180 = FACE_BOUND('',#1181,.T.);
#1181 = EDGE_LOOP('',(#1182,#1190,#1196,#1197));
#1182 = ORIENTED_EDGE('',*,*,#1183,.F.);
#1183 = EDGE_CURVE('',#1184,#1153,#1186,.T.);
#1184 = VERTEX_POINT('',#1185);
#1185 = CARTESIAN_POINT('',(-3.695,1.525,0.5));
#1186 = LINE('',#1187,#1188);
#1187 = CARTESIAN_POINT('',(-6.799923085461,1.525,0.5));
#1188 = VECTOR('',#1189,1.);
#1189 = DIRECTION('',(-1.,0.,0.));
#1190 = ORIENTED_EDGE('',*,*,#1191,.F.);
#1191 = EDGE_CURVE('',#1123,#1184,#1192,.T.);
#1192 = LINE('',#1193,#1194);
#1193 = CARTESIAN_POINT('',(-3.695,1.525,0.));
#1194 = VECTOR('',#1195,1.);
#1195 = DIRECTION('',(0.,0.,1.));
#1196 = ORIENTED_EDGE('',*,*,#1122,.F.);
#1197 = ORIENTED_EDGE('',*,*,#1162,.F.);
#1198 = PLANE('',#1199);
#1199 = AXIS2_PLACEMENT_3D('',#1200,#1201,#1202);
#1200 = CARTESIAN_POINT('',(-3.695,1.525,0.));
#1201 = DIRECTION('',(0.,1.,0.));
#1202 = DIRECTION('',(-1.,0.,0.));
#1203 = ADVANCED_FACE('',(#1204),#1222,.T.);
#1204 = FACE_BOUND('',#1205,.T.);
#1205 = EDGE_LOOP('',(#1206,#1214,#1220,#1221));
#1206 = ORIENTED_EDGE('',*,*,#1207,.F.);
#1207 = EDGE_CURVE('',#1208,#1184,#1210,.T.);
#1208 = VERTEX_POINT('',#1209);
#1209 = CARTESIAN_POINT('',(-3.695,1.275,0.5));
#1210 = LINE('',#1211,#1212);
#1211 = CARTESIAN_POINT('',(-3.695,-1.6625,0.5));
#1212 = VECTOR('',#1213,1.);
#1213 = DIRECTION('',(0.,1.,0.));
#1214 = ORIENTED_EDGE('',*,*,#1215,.F.);
#1215 = EDGE_CURVE('',#1131,#1208,#1216,.T.);
#1216 = LINE('',#1217,#1218);
#1217 = CARTESIAN_POINT('',(-3.695,1.275,0.));
#1218 = VECTOR('',#1219,1.);
#1219 = DIRECTION('',(0.,0.,1.));
#1220 = ORIENTED_EDGE('',*,*,#1130,.F.);
#1221 = ORIENTED_EDGE('',*,*,#1191,.T.);
#1222 = PLANE('',#1223);
#1223 = AXIS2_PLACEMENT_3D('',#1224,#1225,#1226);
#1224 = CARTESIAN_POINT('',(-3.695,1.275,0.));
#1225 = DIRECTION('',(1.,0.,0.));
#1226 = DIRECTION('',(-0.,1.,0.));
#1227 = ADVANCED_FACE('',(#1228),#1239,.T.);
#1228 = FACE_BOUND('',#1229,.T.);
#1229 = EDGE_LOOP('',(#1230,#1236,#1237,#1238));
#1230 = ORIENTED_EDGE('',*,*,#1231,.F.);
#1231 = EDGE_CURVE('',#1155,#1208,#1232,.T.);
#1232 = LINE('',#1233,#1234);
#1233 = CARTESIAN_POINT('',(-6.924923085461,1.275,0.5));
#1234 = VECTOR('',#1235,1.);
#1235 = DIRECTION('',(1.,0.,0.));
#1236 = ORIENTED_EDGE('',*,*,#1169,.F.);
#1237 = ORIENTED_EDGE('',*,*,#1138,.F.);
#1238 = ORIENTED_EDGE('',*,*,#1215,.T.);
#1239 = PLANE('',#1240);
#1240 = AXIS2_PLACEMENT_3D('',#1241,#1242,#1243);
#1241 = CARTESIAN_POINT('',(-3.945,1.275,0.));
#1242 = DIRECTION('',(0.,-1.,0.));
#1243 = DIRECTION('',(1.,0.,0.));
#1244 = ADVANCED_FACE('',(#1245),#1251,.T.);
#1245 = FACE_BOUND('',#1246,.T.);
#1246 = EDGE_LOOP('',(#1247,#1248,#1249,#1250));
#1247 = ORIENTED_EDGE('',*,*,#1183,.T.);
#1248 = ORIENTED_EDGE('',*,*,#1152,.T.);
#1249 = ORIENTED_EDGE('',*,*,#1231,.T.);
#1250 = ORIENTED_EDGE('',*,*,#1207,.T.);
#1251 = PLANE('',#1252);
#1252 = AXIS2_PLACEMENT_3D('',#1253,#1254,#1255);
#1253 = CARTESIAN_POINT('',(-9.904846170923,-4.6,0.5));
#1254 = DIRECTION('',(0.,0.,1.));
#1255 = DIRECTION('',(1.,0.,-0.));
#1256 = ( GEOMETRIC_REPRESENTATION_CONTEXT(3) 
GLOBAL_UNCERTAINTY_ASSIGNED_CONTEXT((#1260)) 
GLOBAL_UNIT_ASSIGNED_CONTEXT((#1257,#1258,#1259)) REPRESENTATION_CONTEXT
('Context #1','3D Context with UNIT and UNCERTAINTY') );
#1257 = ( LENGTH_UNIT() NAMED_UNIT(*) SI_UNIT(.MILLI.,.METRE.) );
#1258 = ( NAMED_UNIT(*) PLANE_ANGLE_UNIT() SI_UNIT($,.RADIAN.) );
#1259 = ( NAMED_UNIT(*) SI_UNIT($,.STERADIAN.) SOLID_ANGLE_UNIT() );
#1260 = UNCERTAINTY_MEASURE_WITH_UNIT(LENGTH_MEASURE(1.E-07),#1257,
  'distance_accuracy_value','confusion accuracy');
#1261 = CONTEXT_DEPENDENT_SHAPE_REPRESENTATION(#1262,#1264);
#1262 = ( REPRESENTATION_RELATIONSHIP('','',#1105,#32) 
REPRESENTATION_RELATIONSHIP_WITH_TRANSFORMATION(#1263) 
SHAPE_REPRESENTATION_RELATIONSHIP() );
#1263 = ITEM_DEFINED_TRANSFORMATION('','',#11,#53);
#1264 = PRODUCT_DEFINITION_SHAPE('Placement','Placement of an item',
  #1265);
#1265 = NEXT_ASSEMBLY_USAGE_OCCURRENCE('6','SIP-005','',#27,#1100,$);
#1266 = PRODUCT_RELATED_PRODUCT_CATEGORY('part',$,(#1102));
#1267 = SHAPE_DEFINITION_REPRESENTATION(#1268,#1274);
#1268 = PRODUCT_DEFINITION_SHAPE('','',#1269);
#1269 = PRODUCT_DEFINITION('design','',#1270,#1273);
#1270 = PRODUCT_DEFINITION_FORMATION('','',#1271);
#1271 = PRODUCT('SIP-006','SIP-006','',(#1272));
#1272 = PRODUCT_CONTEXT('',#2,'mechanical');
#1273 = PRODUCT_DEFINITION_CONTEXT('part definition',#2,'design');
#1274 = ADVANCED_BREP_SHAPE_REPRESENTATION('',(#11,#1275),#1425);
#1275 = MANIFOLD_SOLID_BREP('',#1276);
#1276 = CLOSED_SHELL('',(#1277,#1317,#1348,#1372,#1396,#1413));
#1277 = ADVANCED_FACE('',(#1278),#1312,.T.);
#1278 = FACE_BOUND('',#1279,.T.);
#1279 = EDGE_LOOP('',(#1280,#1290,#1298,#1306));
#1280 = ORIENTED_EDGE('',*,*,#1281,.T.);
#1281 = EDGE_CURVE('',#1282,#1284,#1286,.T.);
#1282 = VERTEX_POINT('',#1283);
#1283 = CARTESIAN_POINT('',(6.215,1.275,-2.54));
#1284 = VERTEX_POINT('',#1285);
#1285 = CARTESIAN_POINT('',(6.215,1.525,-2.54));
#1286 = LINE('',#1287,#1288);
#1287 = CARTESIAN_POINT('',(6.215,1.525,-2.54));
#1288 = VECTOR('',#1289,1.);
#1289 = DIRECTION('',(0.,1.,0.));
#1290 = ORIENTED_EDGE('',*,*,#1291,.T.);
#1291 = EDGE_CURVE('',#1284,#1292,#1294,.T.);
#1292 = VERTEX_POINT('',#1293);
#1293 = CARTESIAN_POINT('',(6.465,1.525,-2.54));
#1294 = LINE('',#1295,#1296);
#1295 = CARTESIAN_POINT('',(6.465,1.525,-2.54));
#1296 = VECTOR('',#1297,1.);
#1297 = DIRECTION('',(1.,0.,0.));
#1298 = ORIENTED_EDGE('',*,*,#1299,.T.);
#1299 = EDGE_CURVE('',#1292,#1300,#1302,.T.);
#1300 = VERTEX_POINT('',#1301);
#1301 = CARTESIAN_POINT('',(6.465,1.275,-2.54));
#1302 = LINE('',#1303,#1304);
#1303 = CARTESIAN_POINT('',(6.465,1.275,-2.54));
#1304 = VECTOR('',#1305,1.);
#1305 = DIRECTION('',(0.,-1.,0.));
#1306 = ORIENTED_EDGE('',*,*,#1307,.T.);
#1307 = EDGE_CURVE('',#1300,#1282,#1308,.T.);
#1308 = LINE('',#1309,#1310);
#1309 = CARTESIAN_POINT('',(6.215,1.275,-2.54));
#1310 = VECTOR('',#1311,1.);
#1311 = DIRECTION('',(-1.,0.,0.));
#1312 = PLANE('',#1313);
#1313 = AXIS2_PLACEMENT_3D('',#1314,#1315,#1316);
#1314 = CARTESIAN_POINT('',(6.34,1.4,-2.54));
#1315 = DIRECTION('',(0.,0.,-1.));
#1316 = DIRECTION('',(-1.,0.,0.));
#1317 = ADVANCED_FACE('',(#1318),#1343,.T.);
#1318 = FACE_BOUND('',#1319,.T.);
#1319 = EDGE_LOOP('',(#1320,#1330,#1336,#1337));
#1320 = ORIENTED_EDGE('',*,*,#1321,.F.);
#1321 = EDGE_CURVE('',#1322,#1324,#1326,.T.);
#1322 = VERTEX_POINT('',#1323);
#1323 = CARTESIAN_POINT('',(6.215,1.525,0.5));
#1324 = VERTEX_POINT('',#1325);
#1325 = CARTESIAN_POINT('',(6.215,1.275,0.5));
#1326 = LINE('',#1327,#1328);
#1327 = CARTESIAN_POINT('',(6.215,-1.5375,0.5));
#1328 = VECTOR('',#1329,1.);
#1329 = DIRECTION('',(0.,-1.,0.));
#1330 = ORIENTED_EDGE('',*,*,#1331,.T.);
#1331 = EDGE_CURVE('',#1322,#1284,#1332,.T.);
#1332 = LINE('',#1333,#1334);
#1333 = CARTESIAN_POINT('',(6.215,1.525,0.));
#1334 = VECTOR('',#1335,1.);
#1335 = DIRECTION('',(0.,0.,-1.));
#1336 = ORIENTED_EDGE('',*,*,#1281,.F.);
#1337 = ORIENTED_EDGE('',*,*,#1338,.T.);
#1338 = EDGE_CURVE('',#1282,#1324,#1339,.T.);
#1339 = LINE('',#1340,#1341);
#1340 = CARTESIAN_POINT('',(6.215,1.275,0.));
#1341 = VECTOR('',#1342,1.);
#1342 = DIRECTION('',(0.,0.,1.));
#1343 = PLANE('',#1344);
#1344 = AXIS2_PLACEMENT_3D('',#1345,#1346,#1347);
#1345 = CARTESIAN_POINT('',(6.215,1.525,0.));
#1346 = DIRECTION('',(-1.,0.,0.));
#1347 = DIRECTION('',(0.,-1.,0.));
#1348 = ADVANCED_FACE('',(#1349),#1367,.T.);
#1349 = FACE_BOUND('',#1350,.T.);
#1350 = EDGE_LOOP('',(#1351,#1359,#1365,#1366));
#1351 = ORIENTED_EDGE('',*,*,#1352,.F.);
#1352 = EDGE_CURVE('',#1353,#1322,#1355,.T.);
#1353 = VERTEX_POINT('',#1354);
#1354 = CARTESIAN_POINT('',(6.465,1.525,0.5));
#1355 = LINE('',#1356,#1357);
#1356 = CARTESIAN_POINT('',(-1.719923085461,1.525,0.5));
#1357 = VECTOR('',#1358,1.);
#1358 = DIRECTION('',(-1.,0.,0.));
#1359 = ORIENTED_EDGE('',*,*,#1360,.F.);
#1360 = EDGE_CURVE('',#1292,#1353,#1361,.T.);
#1361 = LINE('',#1362,#1363);
#1362 = CARTESIAN_POINT('',(6.465,1.525,0.));
#1363 = VECTOR('',#1364,1.);
#1364 = DIRECTION('',(0.,0.,1.));
#1365 = ORIENTED_EDGE('',*,*,#1291,.F.);
#1366 = ORIENTED_EDGE('',*,*,#1331,.F.);
#1367 = PLANE('',#1368);
#1368 = AXIS2_PLACEMENT_3D('',#1369,#1370,#1371);
#1369 = CARTESIAN_POINT('',(6.465,1.525,0.));
#1370 = DIRECTION('',(0.,1.,0.));
#1371 = DIRECTION('',(-1.,0.,0.));
#1372 = ADVANCED_FACE('',(#1373),#1391,.T.);
#1373 = FACE_BOUND('',#1374,.T.);
#1374 = EDGE_LOOP('',(#1375,#1383,#1389,#1390));
#1375 = ORIENTED_EDGE('',*,*,#1376,.F.);
#1376 = EDGE_CURVE('',#1377,#1353,#1379,.T.);
#1377 = VERTEX_POINT('',#1378);
#1378 = CARTESIAN_POINT('',(6.465,1.275,0.5));
#1379 = LINE('',#1380,#1381);
#1380 = CARTESIAN_POINT('',(6.465,-1.6625,0.5));
#1381 = VECTOR('',#1382,1.);
#1382 = DIRECTION('',(0.,1.,0.));
#1383 = ORIENTED_EDGE('',*,*,#1384,.F.);
#1384 = EDGE_CURVE('',#1300,#1377,#1385,.T.);
#1385 = LINE('',#1386,#1387);
#1386 = CARTESIAN_POINT('',(6.465,1.275,0.));
#1387 = VECTOR('',#1388,1.);
#1388 = DIRECTION('',(0.,0.,1.));
#1389 = ORIENTED_EDGE('',*,*,#1299,.F.);
#1390 = ORIENTED_EDGE('',*,*,#1360,.T.);
#1391 = PLANE('',#1392);
#1392 = AXIS2_PLACEMENT_3D('',#1393,#1394,#1395);
#1393 = CARTESIAN_POINT('',(6.465,1.275,0.));
#1394 = DIRECTION('',(1.,0.,0.));
#1395 = DIRECTION('',(-0.,1.,0.));
#1396 = ADVANCED_FACE('',(#1397),#1408,.T.);
#1397 = FACE_BOUND('',#1398,.T.);
#1398 = EDGE_LOOP('',(#1399,#1405,#1406,#1407));
#1399 = ORIENTED_EDGE('',*,*,#1400,.F.);
#1400 = EDGE_CURVE('',#1324,#1377,#1401,.T.);
#1401 = LINE('',#1402,#1403);
#1402 = CARTESIAN_POINT('',(-1.844923085461,1.275,0.5));
#1403 = VECTOR('',#1404,1.);
#1404 = DIRECTION('',(1.,0.,0.));
#1405 = ORIENTED_EDGE('',*,*,#1338,.F.);
#1406 = ORIENTED_EDGE('',*,*,#1307,.F.);
#1407 = ORIENTED_EDGE('',*,*,#1384,.T.);
#1408 = PLANE('',#1409);
#1409 = AXIS2_PLACEMENT_3D('',#1410,#1411,#1412);
#1410 = CARTESIAN_POINT('',(6.215,1.275,0.));
#1411 = DIRECTION('',(0.,-1.,0.));
#1412 = DIRECTION('',(1.,0.,0.));
#1413 = ADVANCED_FACE('',(#1414),#1420,.T.);
#1414 = FACE_BOUND('',#1415,.T.);
#1415 = EDGE_LOOP('',(#1416,#1417,#1418,#1419));
#1416 = ORIENTED_EDGE('',*,*,#1352,.T.);
#1417 = ORIENTED_EDGE('',*,*,#1321,.T.);
#1418 = ORIENTED_EDGE('',*,*,#1400,.T.);
#1419 = ORIENTED_EDGE('',*,*,#1376,.T.);
#1420 = PLANE('',#1421);
#1421 = AXIS2_PLACEMENT_3D('',#1422,#1423,#1424);
#1422 = CARTESIAN_POINT('',(-9.904846170923,-4.6,0.5));
#1423 = DIRECTION('',(0.,0.,1.));
#1424 = DIRECTION('',(1.,0.,-0.));
#1425 = ( GEOMETRIC_REPRESENTATION_CONTEXT(3) 
GLOBAL_UNCERTAINTY_ASSIGNED_CONTEXT((#1429)) 
GLOBAL_UNIT_ASSIGNED_CONTEXT((#1426,#1427,#1428)) REPRESENTATION_CONTEXT
('Context #1','3D Context with UNIT and UNCERTAINTY') );
#1426 = ( LENGTH_UNIT() NAMED_UNIT(*) SI_UNIT(.MILLI.,.METRE.) );
#1427 = ( NAMED_UNIT(*) PLANE_ANGLE_UNIT() SI_UNIT($,.RADIAN.) );
#1428 = ( NAMED_UNIT(*) SI_UNIT($,.STERADIAN.) SOLID_ANGLE_UNIT() );
#1429 = UNCERTAINTY_MEASURE_WITH_UNIT(LENGTH_MEASURE(1.E-07),#1426,
  'distance_accuracy_value','confusion accuracy');
#1430 = CONTEXT_DEPENDENT_SHAPE_REPRESENTATION(#1431,#1433);
#1431 = ( REPRESENTATION_RELATIONSHIP('','',#1274,#32) 
REPRESENTATION_RELATIONSHIP_WITH_TRANSFORMATION(#1432) 
SHAPE_REPRESENTATION_RELATIONSHIP() );
#1432 = ITEM_DEFINED_TRANSFORMATION('','',#11,#57);
#1433 = PRODUCT_DEFINITION_SHAPE('Placement','Placement of an item',
  #1434);
#1434 = NEXT_ASSEMBLY_USAGE_OCCURRENCE('7','SIP-006','',#27,#1269,$);
#1435 = PRODUCT_RELATED_PRODUCT_CATEGORY('part',$,(#1271));
#1436 = SHAPE_DEFINITION_REPRESENTATION(#1437,#1443);
#1437 = PRODUCT_DEFINITION_SHAPE('','',#1438);
#1438 = PRODUCT_DEFINITION('design','',#1439,#1442);
#1439 = PRODUCT_DEFINITION_FORMATION('','',#1440);
#1440 = PRODUCT('SIP-007','SIP-007','',(#1441));
#1441 = PRODUCT_CONTEXT('',#2,'mechanical');
#1442 = PRODUCT_DEFINITION_CONTEXT('part definition',#2,'design');
#1443 = ADVANCED_BREP_SHAPE_REPRESENTATION('',(#11,#1444),#1594);
#1444 = MANIFOLD_SOLID_BREP('',#1445);
#1445 = CLOSED_SHELL('',(#1446,#1486,#1517,#1541,#1565,#1582));
#1446 = ADVANCED_FACE('',(#1447),#1481,.T.);
#1447 = FACE_BOUND('',#1448,.T.);
#1448 = EDGE_LOOP('',(#1449,#1459,#1467,#1475));
#1449 = ORIENTED_EDGE('',*,*,#1450,.T.);
#1450 = EDGE_CURVE('',#1451,#1453,#1455,.T.);
#1451 = VERTEX_POINT('',#1452);
#1452 = CARTESIAN_POINT('',(1.135,1.275,-2.54));
#1453 = VERTEX_POINT('',#1454);
#1454 = CARTESIAN_POINT('',(1.135,1.525,-2.54));
#1455 = LINE('',#1456,#1457);
#1456 = CARTESIAN_POINT('',(1.135,1.525,-2.54));
#1457 = VECTOR('',#1458,1.);
#1458 = DIRECTION('',(0.,1.,0.));
#1459 = ORIENTED_EDGE('',*,*,#1460,.T.);
#1460 = EDGE_CURVE('',#1453,#1461,#1463,.T.);
#1461 = VERTEX_POINT('',#1462);
#1462 = CARTESIAN_POINT('',(1.385,1.525,-2.54));
#1463 = LINE('',#1464,#1465);
#1464 = CARTESIAN_POINT('',(1.385,1.525,-2.54));
#1465 = VECTOR('',#1466,1.);
#1466 = DIRECTION('',(1.,0.,0.));
#1467 = ORIENTED_EDGE('',*,*,#1468,.T.);
#1468 = EDGE_CURVE('',#1461,#1469,#1471,.T.);
#1469 = VERTEX_POINT('',#1470);
#1470 = CARTESIAN_POINT('',(1.385,1.275,-2.54));
#1471 = LINE('',#1472,#1473);
#1472 = CARTESIAN_POINT('',(1.385,1.275,-2.54));
#1473 = VECTOR('',#1474,1.);
#1474 = DIRECTION('',(0.,-1.,0.));
#1475 = ORIENTED_EDGE('',*,*,#1476,.T.);
#1476 = EDGE_CURVE('',#1469,#1451,#1477,.T.);
#1477 = LINE('',#1478,#1479);
#1478 = CARTESIAN_POINT('',(1.135,1.275,-2.54));
#1479 = VECTOR('',#1480,1.);
#1480 = DIRECTION('',(-1.,0.,0.));
#1481 = PLANE('',#1482);
#1482 = AXIS2_PLACEMENT_3D('',#1483,#1484,#1485);
#1483 = CARTESIAN_POINT('',(1.26,1.4,-2.54));
#1484 = DIRECTION('',(0.,0.,-1.));
#1485 = DIRECTION('',(-1.,0.,0.));
#1486 = ADVANCED_FACE('',(#1487),#1512,.T.);
#1487 = FACE_BOUND('',#1488,.T.);
#1488 = EDGE_LOOP('',(#1489,#1499,#1505,#1506));
#1489 = ORIENTED_EDGE('',*,*,#1490,.F.);
#1490 = EDGE_CURVE('',#1491,#1493,#1495,.T.);
#1491 = VERTEX_POINT('',#1492);
#1492 = CARTESIAN_POINT('',(1.135,1.525,0.5));
#1493 = VERTEX_POINT('',#1494);
#1494 = CARTESIAN_POINT('',(1.135,1.275,0.5));
#1495 = LINE('',#1496,#1497);
#1496 = CARTESIAN_POINT('',(1.135,-1.5375,0.5));
#1497 = VECTOR('',#1498,1.);
#1498 = DIRECTION('',(0.,-1.,0.));
#1499 = ORIENTED_EDGE('',*,*,#1500,.T.);
#1500 = EDGE_CURVE('',#1491,#1453,#1501,.T.);
#1501 = LINE('',#1502,#1503);
#1502 = CARTESIAN_POINT('',(1.135,1.525,0.));
#1503 = VECTOR('',#1504,1.);
#1504 = DIRECTION('',(0.,0.,-1.));
#1505 = ORIENTED_EDGE('',*,*,#1450,.F.);
#1506 = ORIENTED_EDGE('',*,*,#1507,.T.);
#1507 = EDGE_CURVE('',#1451,#1493,#1508,.T.);
#1508 = LINE('',#1509,#1510);
#1509 = CARTESIAN_POINT('',(1.135,1.275,0.));
#1510 = VECTOR('',#1511,1.);
#1511 = DIRECTION('',(0.,0.,1.));
#1512 = PLANE('',#1513);
#1513 = AXIS2_PLACEMENT_3D('',#1514,#1515,#1516);
#1514 = CARTESIAN_POINT('',(1.135,1.525,0.));
#1515 = DIRECTION('',(-1.,0.,0.));
#1516 = DIRECTION('',(0.,-1.,0.));
#1517 = ADVANCED_FACE('',(#1518),#1536,.T.);
#1518 = FACE_BOUND('',#1519,.T.);
#1519 = EDGE_LOOP('',(#1520,#1528,#1534,#1535));
#1520 = ORIENTED_EDGE('',*,*,#1521,.F.);
#1521 = EDGE_CURVE('',#1522,#1491,#1524,.T.);
#1522 = VERTEX_POINT('',#1523);
#1523 = CARTESIAN_POINT('',(1.385,1.525,0.5));
#1524 = LINE('',#1525,#1526);
#1525 = CARTESIAN_POINT('',(-4.259923085461,1.525,0.5));
#1526 = VECTOR('',#1527,1.);
#1527 = DIRECTION('',(-1.,0.,0.));
#1528 = ORIENTED_EDGE('',*,*,#1529,.F.);
#1529 = EDGE_CURVE('',#1461,#1522,#1530,.T.);
#1530 = LINE('',#1531,#1532);
#1531 = CARTESIAN_POINT('',(1.385,1.525,0.));
#1532 = VECTOR('',#1533,1.);
#1533 = DIRECTION('',(0.,0.,1.));
#1534 = ORIENTED_EDGE('',*,*,#1460,.F.);
#1535 = ORIENTED_EDGE('',*,*,#1500,.F.);
#1536 = PLANE('',#1537);
#1537 = AXIS2_PLACEMENT_3D('',#1538,#1539,#1540);
#1538 = CARTESIAN_POINT('',(1.385,1.525,0.));
#1539 = DIRECTION('',(0.,1.,0.));
#1540 = DIRECTION('',(-1.,0.,0.));
#1541 = ADVANCED_FACE('',(#1542),#1560,.T.);
#1542 = FACE_BOUND('',#1543,.T.);
#1543 = EDGE_LOOP('',(#1544,#1552,#1558,#1559));
#1544 = ORIENTED_EDGE('',*,*,#1545,.F.);
#1545 = EDGE_CURVE('',#1546,#1522,#1548,.T.);
#1546 = VERTEX_POINT('',#1547);
#1547 = CARTESIAN_POINT('',(1.385,1.275,0.5));
#1548 = LINE('',#1549,#1550);
#1549 = CARTESIAN_POINT('',(1.385,-1.6625,0.5));
#1550 = VECTOR('',#1551,1.);
#1551 = DIRECTION('',(0.,1.,0.));
#1552 = ORIENTED_EDGE('',*,*,#1553,.F.);
#1553 = EDGE_CURVE('',#1469,#1546,#1554,.T.);
#1554 = LINE('',#1555,#1556);
#1555 = CARTESIAN_POINT('',(1.385,1.275,0.));
#1556 = VECTOR('',#1557,1.);
#1557 = DIRECTION('',(0.,0.,1.));
#1558 = ORIENTED_EDGE('',*,*,#1468,.F.);
#1559 = ORIENTED_EDGE('',*,*,#1529,.T.);
#1560 = PLANE('',#1561);
#1561 = AXIS2_PLACEMENT_3D('',#1562,#1563,#1564);
#1562 = CARTESIAN_POINT('',(1.385,1.275,0.));
#1563 = DIRECTION('',(1.,0.,0.));
#1564 = DIRECTION('',(-0.,1.,0.));
#1565 = ADVANCED_FACE('',(#1566),#1577,.T.);
#1566 = FACE_BOUND('',#1567,.T.);
#1567 = EDGE_LOOP('',(#1568,#1574,#1575,#1576));
#1568 = ORIENTED_EDGE('',*,*,#1569,.F.);
#1569 = EDGE_CURVE('',#1493,#1546,#1570,.T.);
#1570 = LINE('',#1571,#1572);
#1571 = CARTESIAN_POINT('',(-4.384923085461,1.275,0.5));
#1572 = VECTOR('',#1573,1.);
#1573 = DIRECTION('',(1.,0.,0.));
#1574 = ORIENTED_EDGE('',*,*,#1507,.F.);
#1575 = ORIENTED_EDGE('',*,*,#1476,.F.);
#1576 = ORIENTED_EDGE('',*,*,#1553,.T.);
#1577 = PLANE('',#1578);
#1578 = AXIS2_PLACEMENT_3D('',#1579,#1580,#1581);
#1579 = CARTESIAN_POINT('',(1.135,1.275,0.));
#1580 = DIRECTION('',(0.,-1.,0.));
#1581 = DIRECTION('',(1.,0.,0.));
#1582 = ADVANCED_FACE('',(#1583),#1589,.T.);
#1583 = FACE_BOUND('',#1584,.T.);
#1584 = EDGE_LOOP('',(#1585,#1586,#1587,#1588));
#1585 = ORIENTED_EDGE('',*,*,#1521,.T.);
#1586 = ORIENTED_EDGE('',*,*,#1490,.T.);
#1587 = ORIENTED_EDGE('',*,*,#1569,.T.);
#1588 = ORIENTED_EDGE('',*,*,#1545,.T.);
#1589 = PLANE('',#1590);
#1590 = AXIS2_PLACEMENT_3D('',#1591,#1592,#1593);
#1591 = CARTESIAN_POINT('',(-9.904846170923,-4.6,0.5));
#1592 = DIRECTION('',(0.,0.,1.));
#1593 = DIRECTION('',(1.,0.,-0.));
#1594 = ( GEOMETRIC_REPRESENTATION_CONTEXT(3) 
GLOBAL_UNCERTAINTY_ASSIGNED_CONTEXT((#1598)) 
GLOBAL_UNIT_ASSIGNED_CONTEXT((#1595,#1596,#1597)) REPRESENTATION_CONTEXT
('Context #1','3D Context with UNIT and UNCERTAINTY') );
#1595 = ( LENGTH_UNIT() NAMED_UNIT(*) SI_UNIT(.MILLI.,.METRE.) );
#1596 = ( NAMED_UNIT(*) PLANE_ANGLE_UNIT() SI_UNIT($,.RADIAN.) );
#1597 = ( NAMED_UNIT(*) SI_UNIT($,.STERADIAN.) SOLID_ANGLE_UNIT() );
#1598 = UNCERTAINTY_MEASURE_WITH_UNIT(LENGTH_MEASURE(1.E-07),#1595,
  'distance_accuracy_value','confusion accuracy');
#1599 = CONTEXT_DEPENDENT_SHAPE_REPRESENTATION(#1600,#1602);
#1600 = ( REPRESENTATION_RELATIONSHIP('','',#1443,#32) 
REPRESENTATION_RELATIONSHIP_WITH_TRANSFORMATION(#1601) 
SHAPE_REPRESENTATION_RELATIONSHIP() );
#1601 = ITEM_DEFINED_TRANSFORMATION('','',#11,#61);
#1602 = PRODUCT_DEFINITION_SHAPE('Placement','Placement of an item',
  #1603);
#1603 = NEXT_ASSEMBLY_USAGE_OCCURRENCE('8','SIP-007','',#27,#1438,$);
#1604 = PRODUCT_RELATED_PRODUCT_CATEGORY('part',$,(#1440));
#1605 = MECHANICAL_DESIGN_GEOMETRIC_PRESENTATION_REPRESENTATION('',(
    #1606),#918);
#1606 = STYLED_ITEM('color',(#1607),#768);
#1607 = PRESENTATION_STYLE_ASSIGNMENT((#1608,#1614));
#1608 = SURFACE_STYLE_USAGE(.BOTH.,#1609);
#1609 = SURFACE_SIDE_STYLE('',(#1610));
#1610 = SURFACE_STYLE_FILL_AREA(#1611);
#1611 = FILL_AREA_STYLE('',(#1612));
#1612 = FILL_AREA_STYLE_COLOUR('',#1613);
#1613 = COLOUR_RGB('',0.819607860991,0.800000010877,0.752941202324);
#1614 = CURVE_STYLE('',#1615,POSITIVE_LENGTH_MEASURE(0.1),#1616);
#1615 = DRAUGHTING_PRE_DEFINED_CURVE_FONT('continuous');
#1616 = COLOUR_RGB('',9.803921802644E-02,9.803921802644E-02,
  9.803921802644E-02);
#1617 = MECHANICAL_DESIGN_GEOMETRIC_PRESENTATION_REPRESENTATION('',(
    #1618),#749);
#1618 = STYLED_ITEM('color',(#1619),#599);
#1619 = PRESENTATION_STYLE_ASSIGNMENT((#1620,#1625));
#1620 = SURFACE_STYLE_USAGE(.BOTH.,#1621);
#1621 = SURFACE_SIDE_STYLE('',(#1622));
#1622 = SURFACE_STYLE_FILL_AREA(#1623);
#1623 = FILL_AREA_STYLE('',(#1624));
#1624 = FILL_AREA_STYLE_COLOUR('',#1613);
#1625 = CURVE_STYLE('',#1626,POSITIVE_LENGTH_MEASURE(0.1),#1616);
#1626 = DRAUGHTING_PRE_DEFINED_CURVE_FONT('continuous');
#1627 = MECHANICAL_DESIGN_GEOMETRIC_PRESENTATION_REPRESENTATION('',(
    #1628),#1594);
#1628 = STYLED_ITEM('color',(#1629),#1444);
#1629 = PRESENTATION_STYLE_ASSIGNMENT((#1630,#1635));
#1630 = SURFACE_STYLE_USAGE(.BOTH.,#1631);
#1631 = SURFACE_SIDE_STYLE('',(#1632));
#1632 = SURFACE_STYLE_FILL_AREA(#1633);
#1633 = FILL_AREA_STYLE('',(#1634));
#1634 = FILL_AREA_STYLE_COLOUR('',#1613);
#1635 = CURVE_STYLE('',#1636,POSITIVE_LENGTH_MEASURE(0.1),#1616);
#1636 = DRAUGHTING_PRE_DEFINED_CURVE_FONT('continuous');
#1637 = MECHANICAL_DESIGN_GEOMETRIC_PRESENTATION_REPRESENTATION('',(
    #1638),#1425);
#1638 = STYLED_ITEM('color',(#1639),#1275);
#1639 = PRESENTATION_STYLE_ASSIGNMENT((#1640,#1645));
#1640 = SURFACE_STYLE_USAGE(.BOTH.,#1641);
#1641 = SURFACE_SIDE_STYLE('',(#1642));
#1642 = SURFACE_STYLE_FILL_AREA(#1643);
#1643 = FILL_AREA_STYLE('',(#1644));
#1644 = FILL_AREA_STYLE_COLOUR('',#1613);
#1645 = CURVE_STYLE('',#1646,POSITIVE_LENGTH_MEASURE(0.1),#1616);
#1646 = DRAUGHTING_PRE_DEFINED_CURVE_FONT('continuous');
#1647 = MECHANICAL_DESIGN_GEOMETRIC_PRESENTATION_REPRESENTATION('',(
    #1648),#1087);
#1648 = STYLED_ITEM('color',(#1649),#937);
#1649 = PRESENTATION_STYLE_ASSIGNMENT((#1650,#1655));
#1650 = SURFACE_STYLE_USAGE(.BOTH.,#1651);
#1651 = SURFACE_SIDE_STYLE('',(#1652));
#1652 = SURFACE_STYLE_FILL_AREA(#1653);
#1653 = FILL_AREA_STYLE('',(#1654));
#1654 = FILL_AREA_STYLE_COLOUR('',#1613);
#1655 = CURVE_STYLE('',#1656,POSITIVE_LENGTH_MEASURE(0.1),#1616);
#1656 = DRAUGHTING_PRE_DEFINED_CURVE_FONT('continuous');
#1657 = MECHANICAL_DESIGN_GEOMETRIC_PRESENTATION_REPRESENTATION('',(
    #1658),#411);
#1658 = STYLED_ITEM('color',(#1659),#84);
#1659 = PRESENTATION_STYLE_ASSIGNMENT((#1660,#1666));
#1660 = SURFACE_STYLE_USAGE(.BOTH.,#1661);
#1661 = SURFACE_SIDE_STYLE('',(#1662));
#1662 = SURFACE_STYLE_FILL_AREA(#1663);
#1663 = FILL_AREA_STYLE('',(#1664));
#1664 = FILL_AREA_STYLE_COLOUR('',#1665);
#1665 = COLOUR_RGB('',4.313725586683E-02,3.921568724327E-02,
  3.921568724327E-02);
#1666 = CURVE_STYLE('',#1667,POSITIVE_LENGTH_MEASURE(0.1),#1616);
#1667 = DRAUGHTING_PRE_DEFINED_CURVE_FONT('continuous');
#1668 = MECHANICAL_DESIGN_GEOMETRIC_PRESENTATION_REPRESENTATION('',(
    #1669),#580);
#1669 = STYLED_ITEM('color',(#1670),#430);
#1670 = PRESENTATION_STYLE_ASSIGNMENT((#1671,#1676));
#1671 = SURFACE_STYLE_USAGE(.BOTH.,#1672);
#1672 = SURFACE_SIDE_STYLE('',(#1673));
#1673 = SURFACE_STYLE_FILL_AREA(#1674);
#1674 = FILL_AREA_STYLE('',(#1675));
#1675 = FILL_AREA_STYLE_COLOUR('',#1613);
#1676 = CURVE_STYLE('',#1677,POSITIVE_LENGTH_MEASURE(0.1),#1616);
#1677 = DRAUGHTING_PRE_DEFINED_CURVE_FONT('continuous');
#1678 = MECHANICAL_DESIGN_GEOMETRIC_PRESENTATION_REPRESENTATION('',(
    #1679),#1256);
#1679 = STYLED_ITEM('color',(#1680),#1106);
#1680 = PRESENTATION_STYLE_ASSIGNMENT((#1681,#1686));
#1681 = SURFACE_STYLE_USAGE(.BOTH.,#1682);
#1682 = SURFACE_SIDE_STYLE('',(#1683));
#1683 = SURFACE_STYLE_FILL_AREA(#1684);
#1684 = FILL_AREA_STYLE('',(#1685));
#1685 = FILL_AREA_STYLE_COLOUR('',#1613);
#1686 = CURVE_STYLE('',#1687,POSITIVE_LENGTH_MEASURE(0.1),#1616);
#1687 = DRAUGHTING_PRE_DEFINED_CURVE_FONT('continuous');
ENDSEC;
END-ISO-10303-21;
